{"glyphs":{"0":{"ha":1006,"x_min":79,"x_max":926,"o":"m 501 -17 q 808 128 689 -17 q 926 486 926 274 q 809 844 926 700 q 504 989 692 989 q 198 844 317 989 q 79 486 79 699 q 196 127 79 271 q 501 -17 313 -17 m 324 238 q 256 486 256 339 q 323 735 256 636 q 501 835 390 835 q 681 734 611 835 q 750 486 750 633 q 683 237 750 336 q 504 138 615 138 q 359 188 393 138 q 324 238 324 238 "},"1":{"ha":550,"x_min":36,"x_max":417,"o":"m 247 0 l 417 0 l 417 979 l 297 979 l 36 896 l 72 757 l 247 806 l 247 0 "},"2":{"ha":851,"x_min":68,"x_max":771,"o":"m 68 0 l 771 0 l 771 150 l 308 150 l 508 317 q 622 415 581 376 q 698 499 663 453 q 747 591 733 546 q 761 693 761 636 q 672 906 761 825 q 440 986 583 986 q 237 937 317 986 q 82 782 157 888 l 203 688 q 313 799 263 764 q 428 833 364 833 q 540 792 496 833 q 585 682 585 751 q 545 562 585 618 q 403 419 506 506 l 68 135 l 68 0 "},"3":{"ha":858,"x_min":60,"x_max":772,"o":"m 432 -17 q 677 69 582 -17 q 772 290 772 156 q 693 481 772 414 q 486 567 614 549 l 757 844 l 757 972 l 114 972 l 114 824 l 535 824 l 272 544 l 300 438 l 379 438 q 542 398 482 438 q 603 288 603 358 q 556 178 603 219 q 435 138 508 138 q 179 265 288 138 l 60 154 q 432 -17 200 -17 "},"4":{"ha":946,"x_min":50,"x_max":875,"o":"m 572 0 l 736 0 l 736 218 l 875 218 l 875 358 l 736 358 l 736 979 l 590 979 l 50 340 l 82 218 l 572 218 l 572 0 m 253 358 l 572 743 l 572 358 l 253 358 "},"5":{"ha":864,"x_min":65,"x_max":782,"o":"m 422 -17 q 683 74 583 -17 q 782 313 782 164 q 688 542 782 463 q 444 621 593 621 q 290 593 367 621 l 306 821 l 739 821 l 739 972 l 158 972 l 131 496 l 233 428 q 413 471 325 471 q 558 427 501 471 q 614 310 614 383 q 561 185 614 232 q 421 139 508 139 q 171 256 296 139 l 65 132 q 422 -17 218 -17 "},"6":{"ha":911,"x_min":79,"x_max":829,"o":"m 468 -17 q 726 77 622 -17 q 829 314 829 171 q 733 540 829 457 q 489 622 636 622 q 257 525 357 622 q 324 748 264 663 q 490 833 385 833 q 701 749 592 833 l 793 881 q 496 989 658 989 q 188 840 297 989 q 79 460 79 692 q 109 231 79 318 q 199 85 139 144 q 468 -17 300 -17 m 464 131 q 318 181 374 131 q 263 306 263 231 q 317 429 263 379 q 460 479 371 479 q 603 431 549 479 q 658 310 658 383 q 606 181 658 231 q 464 131 553 131 "},"7":{"ha":846,"x_min":94,"x_max":778,"o":"m 147 0 l 339 0 l 778 843 l 778 972 l 94 972 l 94 822 l 583 822 l 147 0 "},"8":{"ha":875,"x_min":67,"x_max":808,"o":"m 438 -14 q 704 63 600 -14 q 808 268 808 140 q 633 504 808 424 q 775 721 775 579 q 679 911 775 836 q 438 986 583 986 q 196 911 292 986 q 100 724 100 836 q 242 504 100 579 q 67 267 67 431 q 172 64 67 142 q 438 -14 276 -14 m 313 601 q 264 706 264 642 q 313 803 264 764 q 438 843 361 843 q 563 803 514 843 q 611 707 611 764 q 562 602 611 643 q 438 561 513 561 q 338 581 363 561 q 313 601 313 601 m 289 172 q 233 275 233 214 q 292 384 233 343 q 438 425 350 425 q 583 384 525 425 q 642 278 642 343 q 586 172 642 214 q 438 129 531 129 q 317 150 344 129 q 289 172 289 172 "},"9":{"ha":911,"x_min":82,"x_max":832,"o":"m 415 -17 q 720 129 608 -17 q 832 513 832 275 q 714 886 832 768 q 444 989 611 989 q 183 893 285 989 q 82 653 82 797 q 176 426 82 511 q 426 342 271 342 q 654 444 568 342 q 588 223 650 307 q 419 139 525 139 q 197 231 306 139 l 104 100 q 415 -17 244 -17 m 307 533 q 253 658 253 582 q 305 790 253 738 q 446 842 357 842 q 593 791 538 842 q 649 663 649 740 q 595 536 649 588 q 451 485 542 485 q 334 509 361 485 q 307 533 307 533 "}," ":{"ha":417,"x_min":0,"x_max":0,"o":""},"!":{"ha":419,"x_min":111,"x_max":308,"o":"m 164 307 l 257 307 l 308 924 l 308 972 l 111 972 l 111 924 l 164 307 m 118 0 l 303 0 l 303 190 l 118 190 l 118 0 "},"\"":{"ha":676,"x_min":83,"x_max":611,"o":"m 388 557 l 475 557 l 611 965 l 611 972 l 421 972 l 388 557 m 83 557 l 171 557 l 306 965 l 306 972 l 115 972 l 83 557 "},"#":{"ha":972,"x_min":54,"x_max":917,"o":"m 140 0 l 289 0 l 326 224 l 554 224 l 515 0 l 664 0 l 703 224 l 867 224 l 867 368 l 728 368 l 768 610 l 917 610 l 917 754 l 793 754 l 831 972 l 682 972 l 646 754 l 418 754 l 456 972 l 307 972 l 269 754 l 106 754 l 106 610 l 244 610 l 204 368 l 54 368 l 54 224 l 179 224 l 140 0 m 351 368 l 393 610 l 621 610 l 579 368 l 351 368 "},"$":{"ha":892,"x_min":68,"x_max":813,"o":"m 400 -136 l 513 -136 l 513 1 q 730 85 647 13 q 813 269 813 157 q 741 450 813 382 q 511 558 669 518 l 511 822 q 700 733 610 801 l 778 864 q 513 969 661 951 l 513 1053 l 400 1053 l 400 972 q 186 890 268 961 q 104 707 104 818 q 174 526 104 592 q 401 419 244 460 l 401 147 q 157 267 282 165 l 68 140 q 400 3 214 24 l 400 -136 m 401 588 q 297 639 325 610 q 268 714 268 668 q 303 794 268 763 q 401 832 338 826 l 401 588 m 511 142 l 511 393 q 619 340 589 369 q 649 263 649 310 q 613 178 649 210 q 511 142 576 147 "},"%":{"ha":1179,"x_min":67,"x_max":1113,"o":"m 294 486 q 460 559 396 486 q 525 735 525 632 q 461 911 525 839 q 297 983 397 983 q 131 910 196 983 q 67 735 67 838 q 131 558 67 631 q 294 486 194 486 m 165 0 l 303 0 l 1014 972 l 876 972 l 165 0 m 882 -11 q 1048 62 983 -11 q 1113 238 1113 135 q 1049 414 1113 342 q 885 486 985 486 q 719 413 783 486 q 654 238 654 340 q 718 61 654 133 q 882 -11 782 -11 m 297 593 q 221 634 251 593 q 190 735 190 675 q 219 835 190 794 q 294 876 247 876 q 371 835 340 876 q 401 735 401 794 q 373 634 401 675 q 297 593 344 593 m 885 96 q 808 137 839 96 q 778 238 778 178 q 806 338 778 297 q 882 379 835 379 q 958 338 928 379 q 989 238 989 297 q 960 137 989 178 q 885 96 932 96 "},"&":{"ha":967,"x_min":54,"x_max":925,"o":"m 799 -19 l 925 71 l 772 226 q 904 449 838 315 l 775 517 q 671 329 724 408 l 504 499 q 718 751 718 579 q 646 921 718 853 q 460 989 574 989 q 257 917 333 989 q 181 744 181 846 q 261 539 181 642 q 54 267 54 450 q 144 63 54 140 q 371 -14 233 -14 q 669 113 533 -14 l 799 -19 m 414 590 q 340 735 340 671 q 372 821 340 788 q 456 854 404 854 q 535 824 504 854 q 567 744 567 793 q 529 655 567 692 q 414 590 492 618 m 389 128 q 272 168 318 128 q 226 269 226 208 q 356 433 226 378 l 572 213 q 389 128 483 128 "},"'":{"ha":374,"x_min":83,"x_max":308,"o":"m 83 557 l 172 557 l 308 965 l 308 972 l 115 972 l 83 557 "},"(":{"ha":611,"x_min":88,"x_max":546,"o":"m 472 -196 l 546 -83 q 326 131 396 15 q 256 399 256 246 q 326 667 256 551 q 546 881 396 782 l 472 993 q 88 399 88 782 q 472 -196 88 15 "},")":{"ha":611,"x_min":67,"x_max":525,"o":"m 140 -196 q 525 399 525 17 q 140 993 525 781 l 67 881 q 287 667 217 782 q 357 399 357 551 q 287 131 357 246 q 67 -83 217 15 l 140 -196 "},"*":{"ha":597,"x_min":81,"x_max":517,"o":"m 250 531 l 347 531 l 328 700 l 467 599 l 517 683 l 358 753 l 517 822 l 467 907 l 328 806 l 347 975 l 250 975 l 269 806 l 131 907 l 81 822 l 239 753 l 81 683 l 131 599 l 269 700 l 250 531 "},"+":{"ha":889,"x_min":99,"x_max":790,"o":"m 365 147 l 524 147 l 524 413 l 790 413 l 790 565 l 524 565 l 524 831 l 365 831 l 365 565 l 99 565 l 99 413 l 365 413 l 365 147 "},",":{"ha":374,"x_min":47,"x_max":279,"o":"m 65 -201 q 226 -138 174 -193 q 279 29 279 -83 l 279 190 l 94 190 l 94 0 l 165 0 q 166 -8 165 -3 q 167 -15 167 -12 q 47 -131 167 -107 l 65 -201 "},"-":{"ha":567,"x_min":78,"x_max":489,"o":"m 78 343 l 489 343 l 489 508 l 78 508 l 78 343 "},".":{"ha":374,"x_min":94,"x_max":279,"o":"m 94 0 l 279 0 l 279 190 l 94 190 l 94 0 "},"/":{"ha":724,"x_min":-35,"x_max":739,"o":"m -35 -178 l 111 -178 l 739 1108 l 593 1108 l -35 -178 "},":":{"ha":388,"x_min":101,"x_max":286,"o":"m 101 543 l 286 543 l 286 733 l 101 733 l 101 543 m 101 0 l 286 0 l 286 190 l 101 190 l 101 0 "},";":{"ha":388,"x_min":54,"x_max":286,"o":"m 101 543 l 286 543 l 286 733 l 101 733 l 101 543 m 72 -201 q 233 -138 181 -193 q 286 29 286 -83 l 286 190 l 101 190 l 101 0 l 172 0 q 173 -8 172 -3 q 174 -15 174 -12 q 54 -131 174 -107 l 72 -201 "},"<":{"ha":889,"x_min":97,"x_max":760,"o":"m 760 107 l 760 268 l 264 490 l 760 711 l 760 871 l 97 564 l 97 414 l 760 107 "},"=":{"ha":889,"x_min":119,"x_max":769,"o":"m 119 585 l 769 585 l 769 740 l 119 740 l 119 585 m 119 238 l 769 238 l 769 393 l 119 393 l 119 238 "},">":{"ha":889,"x_min":129,"x_max":792,"o":"m 129 107 l 792 414 l 792 564 l 129 871 l 129 710 l 625 488 l 129 267 l 129 107 "},"?":{"ha":751,"x_min":33,"x_max":693,"o":"m 288 307 l 400 307 l 414 419 q 617 509 540 442 q 693 700 693 576 q 604 908 693 831 q 368 985 515 985 q 33 831 169 985 l 138 719 q 364 829 240 829 q 481 793 438 829 q 524 697 524 757 q 267 539 524 549 l 260 532 l 288 307 m 247 0 l 433 0 l 433 190 l 247 190 l 247 0 "},"@":{"ha":1361,"x_min":74,"x_max":1288,"o":"m 693 -225 q 1061 -121 890 -225 l 1036 -79 q 693 -172 875 -172 q 289 -12 449 -172 q 129 381 129 147 q 288 774 129 613 q 682 936 447 936 q 1072 786 913 936 q 1232 439 1232 636 q 1179 228 1232 303 q 1049 154 1126 154 q 969 181 999 154 q 940 253 940 207 q 947 313 940 271 l 1008 663 l 874 683 l 857 600 q 661 703 790 703 q 442 601 538 703 q 346 356 346 500 q 418 166 346 239 q 597 93 490 93 q 813 190 718 93 q 1018 93 874 93 q 1210 183 1133 93 q 1288 439 1288 272 q 1240 646 1288 546 q 1113 822 1193 746 q 920 943 1033 897 q 682 989 807 989 q 251 810 428 989 q 74 381 74 631 q 251 -48 74 129 q 693 -225 429 -225 m 635 214 q 528 253 568 214 q 488 364 488 293 q 545 519 488 456 q 681 583 603 583 q 785 542 743 583 q 826 433 826 500 q 769 278 826 343 q 635 214 711 214 "},"A":{"ha":1097,"x_min":42,"x_max":1056,"o":"m 42 0 l 217 0 l 317 235 l 776 235 l 875 0 l 1056 0 l 628 979 l 469 979 l 42 0 m 379 386 l 546 775 l 714 386 l 379 386 "},"B":{"ha":1003,"x_min":125,"x_max":935,"o":"m 125 0 l 575 0 q 838 69 740 0 q 935 267 935 139 q 742 506 935 440 q 881 722 881 578 q 815 886 881 821 q 561 972 729 972 l 125 972 l 125 0 m 293 563 l 293 821 l 539 821 q 665 788 621 821 q 710 697 710 756 q 660 597 710 631 q 526 563 611 563 l 293 563 m 293 151 l 293 418 l 564 418 q 764 288 764 418 q 715 186 764 221 q 576 151 665 151 l 293 151 "},"C":{"ha":1025,"x_min":82,"x_max":971,"o":"m 576 -17 q 797 26 706 -17 q 971 156 889 69 l 861 267 q 729 172 793 203 q 582 140 665 140 q 353 241 444 140 q 261 486 261 342 q 352 732 261 632 q 582 832 443 832 q 854 711 724 832 l 964 838 q 798 950 886 911 q 583 989 710 989 q 224 843 365 989 q 82 486 82 697 q 224 128 82 274 q 576 -17 365 -17 "},"D":{"ha":1086,"x_min":125,"x_max":1004,"o":"m 125 0 l 488 0 q 859 139 714 0 q 1004 486 1004 278 q 860 834 1004 696 q 488 972 715 972 l 125 972 l 125 0 m 296 156 l 296 817 l 488 817 q 732 724 639 817 q 825 486 825 631 q 732 248 825 340 q 488 156 639 156 l 296 156 "},"E":{"ha":931,"x_min":125,"x_max":853,"o":"m 125 0 l 853 0 l 853 153 l 296 153 l 296 414 l 783 414 l 783 567 l 296 567 l 296 819 l 846 819 l 846 972 l 125 972 l 125 0 "},"F":{"ha":911,"x_min":125,"x_max":849,"o":"m 125 0 l 296 0 l 296 396 l 786 396 l 786 551 l 296 551 l 296 817 l 849 817 l 849 972 l 125 972 l 125 0 "},"G":{"ha":1089,"x_min":82,"x_max":992,"o":"m 586 -17 q 992 135 815 -17 l 992 543 l 578 543 l 578 394 l 826 394 l 826 213 q 592 139 728 139 q 353 237 444 139 q 261 486 261 335 q 352 731 261 629 q 576 832 443 832 q 726 806 664 832 q 849 728 788 781 l 957 857 q 792 956 878 924 q 583 989 706 989 q 224 842 367 989 q 82 486 82 694 q 222 126 82 268 q 586 -17 361 -17 "},"H":{"ha":1056,"x_min":125,"x_max":931,"o":"m 125 0 l 296 0 l 296 410 l 760 410 l 760 0 l 931 0 l 931 972 l 760 972 l 760 568 l 296 568 l 296 972 l 125 972 l 125 0 "},"I":{"ha":440,"x_min":135,"x_max":306,"o":"m 135 0 l 306 0 l 306 972 l 135 972 l 135 0 "},"J":{"ha":776,"x_min":29,"x_max":667,"o":"m 340 -14 q 576 72 490 -14 q 667 331 667 163 l 667 972 l 492 972 l 492 335 q 450 192 492 240 q 338 144 408 144 q 142 258 232 144 l 29 143 q 340 -14 144 -14 "},"K":{"ha":1007,"x_min":125,"x_max":986,"o":"m 125 0 l 296 0 l 296 282 l 447 438 l 779 0 l 986 0 l 564 554 l 968 972 l 758 972 l 296 483 l 296 972 l 125 972 l 125 0 "},"L":{"ha":860,"x_min":125,"x_max":807,"o":"m 125 0 l 807 0 l 807 156 l 296 156 l 296 972 l 125 972 l 125 0 "},"M":{"ha":1206,"x_min":125,"x_max":1081,"o":"m 125 0 l 293 0 l 293 694 l 597 239 l 603 239 l 910 697 l 910 0 l 1081 0 l 1081 972 l 899 972 l 603 513 l 307 972 l 125 972 l 125 0 "},"N":{"ha":1097,"x_min":125,"x_max":972,"o":"m 125 0 l 293 0 l 293 692 l 829 0 l 972 0 l 972 972 l 804 972 l 804 300 l 283 972 l 125 972 l 125 0 "},"O":{"ha":1181,"x_min":82,"x_max":1099,"o":"m 954 131 q 1099 486 1099 278 q 956 843 1099 697 q 592 989 813 989 q 226 842 371 989 q 82 486 82 694 q 225 129 82 275 q 589 -17 368 -17 q 882 57 810 -17 q 954 131 954 131 m 355 241 q 261 486 261 342 q 353 732 261 632 q 589 832 446 832 q 826 731 732 832 q 919 486 919 631 q 827 240 919 340 q 592 140 735 140 q 402 191 449 140 q 355 241 355 241 "},"P":{"ha":928,"x_min":125,"x_max":878,"o":"m 125 0 l 296 0 l 296 313 l 489 313 q 767 400 657 313 q 878 644 878 488 q 778 883 878 794 q 508 972 678 972 l 125 972 l 125 0 m 296 467 l 296 817 l 494 817 q 648 772 592 817 q 704 643 704 726 q 647 515 704 564 q 494 467 590 467 l 296 467 "},"Q":{"ha":1181,"x_min":82,"x_max":1111,"o":"m 1001 -29 l 1111 93 l 1000 188 q 1099 486 1099 318 q 956 843 1099 697 q 592 989 813 989 q 226 842 371 989 q 82 486 82 694 q 225 129 82 275 q 589 -17 368 -17 q 885 75 756 -17 l 1001 -29 m 592 140 q 355 241 449 140 q 261 486 261 342 q 353 732 261 632 q 589 832 446 832 q 826 731 732 832 q 919 486 919 631 q 869 301 919 378 l 701 454 l 592 329 l 758 188 q 592 140 685 140 "},"R":{"ha":1004,"x_min":125,"x_max":950,"o":"m 125 0 l 296 0 l 296 339 l 507 339 l 749 0 l 950 0 l 688 368 q 857 473 794 399 q 919 663 919 547 q 824 888 919 804 q 558 972 728 972 l 125 972 l 125 0 m 296 490 l 296 817 l 544 817 q 693 775 640 817 q 746 656 746 733 q 692 535 746 579 q 546 490 638 490 l 296 490 "},"S":{"ha":889,"x_min":60,"x_max":813,"o":"m 465 -14 q 717 64 621 -14 q 813 276 813 142 q 737 460 813 394 q 500 564 661 525 q 316 628 363 597 q 269 717 269 660 q 312 801 269 768 q 428 835 354 835 q 692 735 557 835 l 783 864 q 431 986 631 986 q 192 908 285 986 q 99 704 99 829 q 176 515 99 576 q 422 413 253 453 q 597 349 553 382 q 642 263 642 317 q 595 172 642 206 q 469 138 549 138 q 163 264 308 138 l 60 142 q 465 -14 233 -14 "},"T":{"ha":900,"x_min":56,"x_max":844,"o":"m 364 0 l 536 0 l 536 814 l 844 814 l 844 972 l 56 972 l 56 814 l 364 814 l 364 0 "},"U":{"ha":1051,"x_min":110,"x_max":942,"o":"m 524 -15 q 831 97 719 -15 q 942 421 942 208 l 942 972 l 771 972 l 771 413 q 706 211 771 281 q 526 142 642 142 q 346 214 411 142 q 281 419 281 286 l 281 972 l 110 972 l 110 413 q 220 94 110 204 q 524 -15 331 -15 "},"V":{"ha":1042,"x_min":42,"x_max":1000,"o":"m 446 -7 l 596 -7 l 1000 972 l 815 972 l 524 225 l 231 972 l 42 972 l 446 -7 "},"W":{"ha":1550,"x_min":50,"x_max":1500,"o":"m 389 -7 l 536 -7 l 775 692 l 1014 -7 l 1161 -7 l 1500 972 l 1321 972 l 1089 251 l 850 975 l 706 975 l 467 251 l 235 972 l 50 972 l 389 -7 "},"X":{"ha":1013,"x_min":51,"x_max":961,"o":"m 51 0 l 247 0 l 504 368 l 760 0 l 961 0 l 608 497 l 947 972 l 751 972 l 508 624 l 267 972 l 65 972 l 406 494 l 51 0 "},"Y":{"ha":994,"x_min":25,"x_max":969,"o":"m 411 0 l 583 0 l 583 388 l 969 972 l 774 972 l 499 542 l 226 972 l 25 972 l 411 383 l 411 0 "},"Z":{"ha":975,"x_min":90,"x_max":886,"o":"m 90 0 l 886 0 l 886 151 l 313 151 l 886 846 l 886 972 l 108 972 l 108 821 l 664 821 l 90 126 l 90 0 "},"[":{"ha":631,"x_min":122,"x_max":549,"o":"m 122 -181 l 549 -181 l 549 -49 l 282 -49 l 282 840 l 549 840 l 549 972 l 122 972 l 122 -181 "},"\\":{"ha":724,"x_min":-15,"x_max":758,"o":"m 613 -178 l 758 -178 l 131 1108 l -15 1108 l 613 -178 "},"]":{"ha":631,"x_min":82,"x_max":510,"o":"m 82 -181 l 510 -181 l 510 972 l 82 972 l 82 840 l 349 840 l 349 -49 l 82 -49 l 82 -181 "},"^":{"ha":694,"x_min":78,"x_max":617,"o":"m 78 685 l 204 685 l 346 868 l 488 685 l 617 685 l 407 974 l 288 974 l 78 685 "},"_":{"ha":833,"x_min":-3,"x_max":836,"o":"m -3 -222 l 836 -222 l 836 -92 l -3 -92 l -3 -222 "},"`":{"ha":694,"x_min":172,"x_max":472,"o":"m 342 826 l 472 826 l 325 1054 l 172 986 l 342 826 "},"a":{"ha":815,"x_min":56,"x_max":721,"o":"m 721 0 l 721 435 q 640 664 721 583 q 399 744 558 744 q 119 683 256 744 l 165 549 q 375 594 275 594 q 509 554 463 594 q 556 438 556 514 l 556 424 q 353 454 460 454 q 138 393 219 454 q 56 214 56 332 q 131 45 56 106 q 317 -15 207 -15 q 554 90 465 -15 l 554 0 l 721 0 m 558 265 q 503 154 558 197 q 364 111 449 111 q 263 140 303 111 q 222 219 222 169 q 267 306 222 275 q 390 336 311 336 q 558 307 483 336 l 558 265 "},"b":{"ha":931,"x_min":106,"x_max":864,"o":"m 522 -15 q 763 88 661 -15 q 864 365 864 192 q 763 645 864 542 q 522 749 661 749 q 274 611 371 749 l 274 1014 l 106 1014 l 106 0 l 274 0 l 274 114 q 522 -15 371 -15 m 483 131 q 333 197 396 131 q 269 365 269 263 q 333 536 269 469 q 483 603 396 603 q 632 538 571 603 q 693 368 693 472 q 633 196 693 261 q 483 131 572 131 "},"c":{"ha":793,"x_min":65,"x_max":744,"o":"m 444 -17 q 615 19 544 -17 q 744 121 685 54 l 643 221 q 453 129 554 129 q 295 197 357 129 q 233 365 233 265 q 294 533 233 464 q 444 601 354 601 q 635 510 547 601 l 739 622 q 446 749 624 749 q 174 636 283 749 q 65 365 65 524 q 174 94 65 206 q 444 -17 282 -17 "},"d":{"ha":931,"x_min":68,"x_max":826,"o":"m 408 -15 q 658 122 561 -15 l 658 0 l 826 0 l 826 1014 l 658 1014 l 658 619 q 408 749 558 749 q 169 646 269 749 q 68 368 68 543 q 169 88 68 192 q 408 -15 271 -15 m 299 196 q 238 365 238 261 q 299 538 238 474 q 449 603 360 603 q 599 537 536 603 q 661 368 661 471 q 599 197 661 264 q 449 131 536 131 q 330 163 361 131 q 299 196 299 196 "},"e":{"ha":839,"x_min":65,"x_max":775,"o":"m 442 -17 q 742 121 628 -17 l 643 208 q 444 121 553 121 q 304 170 361 121 q 233 307 247 219 l 772 307 q 775 354 775 324 q 683 635 775 522 q 424 749 590 749 q 167 638 268 749 q 65 367 65 526 q 173 90 65 197 q 442 -17 281 -17 m 232 418 q 294 558 243 504 q 422 611 346 611 q 551 557 503 611 q 608 418 600 503 l 232 418 "},"f":{"ha":522,"x_min":50,"x_max":504,"o":"m 143 0 l 311 0 l 311 589 l 503 589 l 503 728 l 308 728 l 308 768 q 406 879 308 879 q 504 861 450 879 l 504 1003 q 368 1022 439 1022 q 203 964 261 1022 q 143 782 143 904 l 143 729 l 50 729 l 50 589 l 143 589 l 143 0 "},"g":{"ha":931,"x_min":68,"x_max":826,"o":"m 432 -225 q 733 -126 635 -225 q 826 150 826 -33 l 826 733 l 658 733 l 658 624 q 401 749 554 749 q 167 654 267 749 q 68 404 68 560 q 167 153 68 247 q 401 58 265 58 q 660 193 556 58 l 660 136 q 600 -31 660 26 q 428 -89 540 -89 q 167 -11 292 -89 l 104 -137 q 432 -225 249 -225 m 446 200 q 298 257 358 200 q 238 403 238 314 q 297 551 238 494 q 446 607 357 607 q 598 550 535 607 q 661 404 661 493 q 598 258 661 315 q 446 200 535 200 "},"h":{"ha":861,"x_min":106,"x_max":764,"o":"m 106 0 l 274 0 l 274 414 q 319 547 274 499 q 439 596 365 596 q 555 549 514 596 q 596 417 596 503 l 596 0 l 764 0 l 764 467 q 694 672 764 596 q 503 749 625 749 q 274 619 361 749 l 274 1014 l 106 1014 l 106 0 "},"i":{"ha":397,"x_min":108,"x_max":289,"o":"m 108 846 l 289 846 l 289 1006 l 108 1006 l 108 846 m 115 0 l 283 0 l 283 733 l 115 733 l 115 0 "},"j":{"ha":397,"x_min":-11,"x_max":289,"o":"m 108 846 l 289 846 l 289 1006 l 108 1006 l 108 846 m 69 -226 q 283 -10 283 -226 l 283 733 l 115 733 l 115 0 q 36 -89 115 -89 q -11 -85 14 -89 l -11 -219 q 69 -226 33 -226 "},"k":{"ha":808,"x_min":106,"x_max":792,"o":"m 106 0 l 274 0 l 274 210 l 376 317 l 597 0 l 792 0 l 490 435 l 782 733 l 578 733 l 274 408 l 274 1014 l 106 1014 l 106 0 "},"l":{"ha":397,"x_min":115,"x_max":283,"o":"m 115 0 l 283 0 l 283 1014 l 115 1014 l 115 0 "},"m":{"ha":1319,"x_min":106,"x_max":1221,"o":"m 106 0 l 274 0 l 274 413 q 317 547 274 497 q 431 596 360 596 q 540 549 501 596 q 579 418 579 503 l 579 0 l 747 0 l 747 414 q 790 548 747 500 q 904 596 833 596 q 1014 550 975 596 q 1053 417 1053 504 l 1053 0 l 1221 0 l 1221 468 q 1153 675 1221 601 q 964 749 1085 749 q 715 619 814 749 q 497 749 650 749 q 274 622 365 749 l 274 733 l 106 733 l 106 0 "},"n":{"ha":861,"x_min":106,"x_max":764,"o":"m 106 0 l 274 0 l 274 414 q 319 547 274 499 q 439 596 365 596 q 555 549 514 596 q 596 417 596 503 l 596 0 l 764 0 l 764 467 q 694 672 764 596 q 503 749 625 749 q 274 619 361 749 l 274 733 l 106 733 l 106 0 "},"o":{"ha":913,"x_min":65,"x_max":847,"o":"m 454 -17 q 735 95 622 -17 q 847 365 847 207 q 735 638 847 526 q 457 749 624 749 q 178 637 290 749 q 65 365 65 525 q 176 94 65 206 q 454 -17 288 -17 m 457 129 q 297 199 361 129 q 233 365 233 268 q 294 533 233 465 q 454 601 356 601 q 615 533 551 601 q 679 365 679 464 q 618 197 679 265 q 457 129 557 129 "},"p":{"ha":931,"x_min":106,"x_max":864,"o":"m 106 -222 l 274 -222 l 274 114 q 522 -15 371 -15 q 763 88 661 -15 q 864 365 864 192 q 763 645 864 542 q 522 749 661 749 q 274 611 371 749 l 274 733 l 106 733 l 106 -222 m 483 131 q 333 197 396 131 q 269 365 269 263 q 333 536 269 469 q 483 603 396 603 q 632 538 571 603 q 693 368 693 472 q 633 196 693 261 q 483 131 572 131 "},"q":{"ha":931,"x_min":68,"x_max":826,"o":"m 658 -222 l 826 -222 l 826 733 l 658 733 l 658 619 q 408 749 558 749 q 169 646 269 749 q 68 368 68 543 q 169 88 68 192 q 408 -15 271 -15 q 658 122 561 -15 l 658 -222 m 299 196 q 238 365 238 261 q 299 538 238 474 q 449 603 360 603 q 599 537 536 603 q 661 368 661 471 q 599 197 661 264 q 449 131 536 131 q 330 163 361 131 q 299 196 299 196 "},"r":{"ha":574,"x_min":106,"x_max":533,"o":"m 106 0 l 274 0 l 274 279 q 342 495 274 421 q 524 569 410 569 l 533 569 l 533 747 q 274 568 351 756 l 274 733 l 106 733 l 106 0 "},"s":{"ha":694,"x_min":46,"x_max":629,"o":"m 357 -14 q 553 46 476 -14 q 629 217 629 106 q 610 302 629 265 q 553 364 590 339 q 483 403 517 389 q 401 433 450 418 q 394 435 399 433 q 388 438 390 436 q 309 465 333 456 q 260 493 285 474 q 236 536 236 513 q 263 592 236 571 q 339 613 290 613 q 546 543 432 613 l 613 663 q 343 746 486 746 q 156 685 231 746 q 82 522 82 624 q 96 447 82 481 q 131 392 110 414 q 185 353 151 371 q 245 324 218 335 q 311 303 272 314 l 324 299 q 383 281 365 286 q 428 263 401 275 q 465 235 454 250 q 475 201 475 221 q 445 141 475 163 q 361 119 415 119 q 121 210 240 119 l 46 96 q 357 -14 185 -14 "},"t":{"ha":569,"x_min":47,"x_max":506,"o":"m 351 -12 q 503 25 436 -12 l 503 163 q 399 138 453 138 q 308 229 308 138 l 308 589 l 506 589 l 506 733 l 308 733 l 308 935 l 140 935 l 140 733 l 47 733 l 47 589 l 140 589 l 140 203 q 351 -12 140 -12 "},"u":{"ha":861,"x_min":97,"x_max":756,"o":"m 358 -15 q 588 114 500 -15 l 588 0 l 756 0 l 756 733 l 588 733 l 588 319 q 542 186 588 235 q 422 138 496 138 q 306 184 347 138 q 265 317 265 231 l 265 733 l 97 733 l 97 267 q 167 61 97 138 q 358 -15 236 -15 "},"v":{"ha":826,"x_min":36,"x_max":789,"o":"m 338 -6 l 489 -6 l 789 733 l 613 733 l 414 194 l 217 733 l 36 733 l 338 -6 "},"w":{"ha":1196,"x_min":44,"x_max":1151,"o":"m 282 -6 l 432 -6 l 597 496 l 761 -6 l 911 -6 l 1151 733 l 983 733 l 833 231 l 669 736 l 526 736 l 364 231 l 217 733 l 44 733 l 282 -6 "},"x":{"ha":806,"x_min":42,"x_max":764,"o":"m 42 0 l 221 0 l 400 257 l 581 0 l 764 0 l 493 376 l 753 733 l 574 733 l 404 492 l 235 733 l 51 733 l 311 372 l 42 0 "},"y":{"ha":828,"x_min":36,"x_max":789,"o":"m 256 -226 q 399 -180 344 -226 q 497 -21 453 -133 l 789 733 l 614 733 l 424 189 l 215 733 l 36 733 l 342 0 q 297 -66 321 -47 q 238 -85 274 -85 q 139 -57 190 -85 l 82 -182 q 256 -226 164 -226 "},"z":{"ha":778,"x_min":72,"x_max":710,"o":"m 72 0 l 710 0 l 710 138 l 286 138 l 710 618 l 710 733 l 88 733 l 88 596 l 496 596 l 72 115 l 72 0 "},"{":{"ha":676,"x_min":72,"x_max":607,"o":"m 578 -196 l 607 -85 q 453 -13 488 -51 q 418 106 418 25 q 419 156 418 119 q 421 208 421 193 q 385 331 421 286 q 276 399 350 375 q 385 467 349 422 q 421 589 421 511 q 419 641 421 604 q 418 692 418 678 q 453 810 418 772 q 607 882 488 849 l 578 993 q 330 894 397 960 q 263 715 263 829 q 264 667 263 706 q 265 615 265 628 q 230 498 265 533 q 108 463 194 463 l 72 463 l 72 335 l 108 335 q 230 299 194 335 q 265 182 265 264 q 264 131 265 169 q 263 82 263 92 q 330 -97 263 -32 q 578 -196 397 -162 "},"|":{"ha":460,"x_min":163,"x_max":297,"o":"m 163 -178 l 297 -178 l 297 1108 l 163 1108 l 163 -178 "},"}":{"ha":676,"x_min":69,"x_max":604,"o":"m 99 -196 q 347 -97 279 -162 q 414 82 414 -32 q 413 131 414 92 q 411 182 411 169 q 447 299 411 264 q 568 335 482 335 l 604 335 l 604 463 l 568 463 q 447 498 482 463 q 411 615 411 533 q 413 667 411 628 q 414 715 414 706 q 347 894 414 829 q 99 993 279 960 l 69 882 q 224 810 189 849 q 258 692 258 772 q 257 641 258 678 q 256 589 256 604 q 291 467 256 511 q 400 399 326 422 q 292 331 328 375 q 256 208 256 286 q 257 156 256 193 q 258 106 258 119 q 224 -13 258 25 q 69 -85 189 -51 l 99 -196 "},"~":{"ha":688,"x_min":82,"x_max":606,"o":"m 175 318 q 206 372 190 356 q 251 388 222 388 q 340 360 272 388 q 450 332 408 332 q 547 374 511 332 q 606 506 582 417 l 513 533 q 481 480 497 496 q 436 464 465 464 q 347 492 415 464 q 238 519 279 519 q 141 478 176 519 q 82 347 106 436 l 175 318 "}," ":{"ha":417,"x_min":0,"x_max":0,"o":""},"¡":{"ha":419,"x_min":111,"x_max":308,"o":"m 118 782 l 303 782 l 303 972 l 118 972 l 118 782 m 111 0 l 308 0 l 308 49 l 257 665 l 164 665 l 111 49 l 111 0 "},"¢":{"ha":807,"x_min":72,"x_max":747,"o":"m 292 -8 l 414 -8 l 438 111 l 446 111 q 747 251 624 111 l 650 347 q 458 257 560 258 l 549 710 q 644 640 596 689 l 746 749 q 582 857 672 829 l 607 981 l 485 981 l 464 875 l 451 875 q 181 764 289 875 q 72 493 72 653 q 141 271 72 369 q 319 133 210 172 l 292 -8 m 354 281 q 267 367 299 310 q 236 493 236 424 q 295 660 236 592 q 442 729 354 728 l 354 281 "},"£":{"ha":894,"x_min":88,"x_max":824,"o":"m 88 0 l 821 0 l 821 149 l 369 149 l 369 386 l 715 386 l 715 531 l 369 531 l 369 654 q 410 781 369 735 q 518 828 450 828 q 613 803 574 828 q 693 726 653 778 l 824 831 q 517 986 706 986 q 281 899 365 986 q 197 658 197 811 l 197 531 l 88 531 l 88 386 l 197 386 l 197 142 l 88 108 l 88 0 "},"¤":{"ha":1000,"x_min":72,"x_max":939,"o":"m 603 -17 q 794 34 714 -17 q 939 179 874 85 l 817 268 q 717 168 764 200 q 604 136 669 136 q 465 183 524 136 q 378 313 407 231 l 678 313 l 678 431 l 353 431 q 350 486 350 467 q 353 549 350 513 l 678 549 l 678 667 l 379 667 q 465 791 408 746 q 593 836 521 836 q 711 806 663 836 q 807 710 760 775 l 936 806 q 795 941 875 893 q 597 989 715 989 q 350 900 454 989 q 203 667 246 811 l 72 667 l 72 549 l 181 549 q 178 486 178 529 q 179 431 178 449 l 72 431 l 72 313 l 199 313 q 345 73 239 163 q 603 -17 451 -17 "},"¥":{"ha":953,"x_min":26,"x_max":926,"o":"m 394 0 l 558 0 l 558 142 l 826 142 l 826 265 l 558 265 l 558 367 l 826 367 l 826 490 l 604 490 l 926 972 l 733 972 l 479 565 l 225 972 l 26 972 l 347 490 l 126 490 l 126 367 l 394 367 l 394 265 l 126 265 l 126 142 l 394 142 l 394 0 "},"¦":{"ha":308,"x_min":74,"x_max":232,"o":"m 74 -124 l 232 -124 l 232 224 l 74 224 l 74 -124 m 74 571 l 232 571 l 232 918 l 74 918 l 74 571 "},"§":{"ha":878,"x_min":81,"x_max":797,"o":"m 453 -14 q 652 41 579 -14 q 725 189 725 96 q 649 324 725 278 q 797 485 797 363 q 729 608 797 563 q 497 690 661 653 q 351 737 389 715 q 314 788 314 758 q 343 840 314 821 q 426 858 372 858 q 650 760 544 858 l 746 854 q 425 986 621 986 q 226 931 299 986 q 153 783 153 876 q 229 649 153 697 q 81 488 81 610 q 149 365 81 411 q 381 282 218 319 q 525 237 486 258 q 564 185 564 215 q 451 114 564 114 q 228 213 333 114 l 132 118 q 453 -14 257 -14 m 539 386 q 394 411 493 386 q 269 456 307 433 q 232 508 232 478 q 262 565 232 543 q 339 586 292 586 q 483 561 385 586 q 608 517 571 539 q 646 464 646 494 q 616 408 646 429 q 539 386 586 386 "},"¨":{"ha":694,"x_min":124,"x_max":571,"o":"m 400 826 l 571 826 l 571 990 l 400 990 l 400 826 m 124 826 l 294 826 l 294 990 l 124 990 l 124 826 "},"©":{"ha":1153,"x_min":74,"x_max":1079,"o":"m 932 131 q 1079 486 1079 279 q 933 842 1079 694 q 578 989 788 989 q 221 841 368 989 q 74 486 74 693 q 219 131 74 278 q 575 -17 365 -17 q 858 57 785 -17 q 932 131 932 131 m 575 33 q 256 165 385 33 q 126 483 126 296 q 256 806 126 674 q 578 939 386 939 q 897 808 768 939 q 1026 489 1026 676 q 897 166 1026 299 q 575 33 767 33 m 582 221 q 796 315 706 221 l 729 381 q 585 315 660 315 q 468 367 515 315 q 421 492 421 419 q 467 619 421 567 q 585 671 514 671 q 726 608 657 671 l 792 683 q 585 765 707 765 q 392 686 468 765 q 315 493 315 607 q 392 299 315 378 q 582 221 468 221 "},"ª":{"ha":542,"x_min":74,"x_max":449,"o":"m 221 560 q 349 615 300 560 l 349 568 l 443 568 l 443 807 q 265 976 443 976 q 111 942 185 976 l 138 867 q 253 893 204 893 q 350 808 350 893 l 350 801 q 244 817 294 817 q 124 783 169 817 q 78 688 78 750 q 119 593 78 626 q 221 560 160 560 m 74 392 l 449 392 l 449 472 l 74 472 l 74 392 m 246 631 q 194 647 214 631 q 174 689 174 663 q 263 754 174 754 q 350 739 307 754 l 350 714 q 320 654 350 678 q 246 631 290 631 "},"«":{"ha":842,"x_min":61,"x_max":768,"o":"m 640 57 l 768 122 l 585 368 l 768 613 l 640 678 l 411 372 l 411 361 l 640 57 m 292 57 l 419 122 l 236 368 l 419 613 l 292 678 l 61 372 l 61 361 l 292 57 "},"¬":{"ha":889,"x_min":114,"x_max":771,"o":"m 613 342 l 771 342 l 771 736 l 114 736 l 114 582 l 613 582 l 613 342 "},"­":{"ha":567,"x_min":78,"x_max":489,"o":"m 78 343 l 489 343 l 489 508 l 78 508 l 78 343 "},"®":{"ha":1153,"x_min":74,"x_max":1079,"o":"m 932 131 q 1079 486 1079 279 q 933 842 1079 694 q 578 989 788 989 q 221 841 368 989 q 74 486 74 693 q 219 131 74 278 q 575 -17 365 -17 q 858 57 785 -17 q 932 131 932 131 m 575 33 q 256 165 385 33 q 126 483 126 296 q 256 806 126 674 q 578 939 386 939 q 897 808 768 939 q 1026 489 1026 676 q 897 166 1026 299 q 575 33 767 33 m 374 238 l 474 238 l 474 419 l 581 419 l 711 238 l 831 238 l 689 436 q 778 493 746 453 q 811 594 811 533 q 768 707 811 667 q 608 764 711 764 l 374 764 l 374 238 m 474 507 l 474 674 l 604 674 q 681 652 653 674 q 708 592 708 631 q 681 529 708 551 q 604 507 653 507 l 474 507 "},"¯":{"ha":694,"x_min":110,"x_max":585,"o":"m 110 833 l 585 833 l 585 957 l 110 957 l 110 833 "},"°":{"ha":654,"x_min":96,"x_max":558,"o":"m 488 597 q 558 754 558 664 l 558 757 q 488 914 558 847 q 326 981 418 981 q 165 914 235 981 q 96 757 96 847 l 96 754 q 165 597 96 664 q 326 529 235 529 q 453 563 418 529 q 488 597 488 597 m 233 660 q 196 754 196 700 l 196 757 q 233 850 196 811 q 326 889 271 889 q 421 850 383 889 q 458 757 458 811 l 458 754 q 420 660 458 700 q 326 621 382 621 q 252 641 271 621 q 233 660 233 660 "},"±":{"ha":889,"x_min":96,"x_max":790,"o":"m 104 22 l 785 22 l 785 167 l 104 167 l 104 22 m 365 244 l 524 244 l 524 457 l 790 457 l 790 608 l 524 608 l 524 819 l 365 819 l 365 608 l 96 608 l 96 457 l 365 457 l 365 244 "},"²":{"ha":694,"x_min":0,"x_max":694,"o":"m 0 0 l 694 0 l 694 972 l 0 972 l 0 0 m 113 68 l 347 422 l 583 68 l 113 68 m 68 133 l 68 839 l 306 486 l 68 133 m 625 133 l 388 486 l 625 839 l 625 133 m 347 549 l 113 903 l 583 903 l 347 549 "},"³":{"ha":694,"x_min":0,"x_max":694,"o":"m 0 0 l 694 0 l 694 972 l 0 972 l 0 0 m 113 68 l 347 422 l 583 68 l 113 68 m 68 133 l 68 839 l 306 486 l 68 133 m 625 133 l 388 486 l 625 839 l 625 133 m 347 549 l 113 903 l 583 903 l 347 549 "},"´":{"ha":694,"x_min":222,"x_max":522,"o":"m 222 826 l 353 826 l 522 986 l 369 1054 l 222 826 "},"µ":{"ha":872,"x_min":104,"x_max":767,"o":"m 104 -222 l 272 -222 l 272 42 q 388 -8 307 -8 q 599 115 524 -8 l 599 0 l 767 0 l 767 733 l 599 733 l 599 321 q 551 184 599 236 q 429 132 504 132 q 317 185 361 132 q 272 314 272 238 l 272 733 l 104 733 l 104 -222 "},"¶":{"ha":774,"x_min":56,"x_max":653,"o":"m 481 0 l 653 0 l 653 972 l 432 972 q 159 888 263 972 q 56 657 56 803 q 167 422 56 504 q 456 339 278 339 l 481 339 l 481 0 "},"·":{"ha":374,"x_min":94,"x_max":279,"o":"m 94 331 l 279 331 l 279 521 l 94 521 l 94 331 "},"¸":{"ha":694,"x_min":182,"x_max":433,"o":"m 329 -229 l 433 14 l 307 14 l 182 -168 l 329 -229 "},"¹":{"ha":694,"x_min":0,"x_max":694,"o":"m 0 0 l 694 0 l 694 972 l 0 972 l 0 0 m 113 68 l 347 422 l 583 68 l 113 68 m 68 133 l 68 839 l 306 486 l 68 133 m 625 133 l 388 486 l 625 839 l 625 133 m 347 549 l 113 903 l 583 903 l 347 549 "},"º":{"ha":542,"x_min":61,"x_max":481,"o":"m 269 558 q 420 619 360 558 q 481 768 481 681 q 421 918 481 857 q 272 979 361 979 q 122 918 182 979 q 61 769 61 857 q 121 619 61 681 q 269 558 181 558 m 71 392 l 471 392 l 471 472 l 71 472 l 71 392 m 272 644 q 191 681 224 644 q 158 768 158 717 q 189 857 158 821 q 269 893 219 893 q 351 857 318 893 q 383 769 383 821 q 353 681 383 717 q 272 644 322 644 "},"»":{"ha":842,"x_min":74,"x_max":781,"o":"m 550 57 l 781 361 l 781 372 l 550 678 l 422 611 l 606 365 l 422 121 l 550 57 m 201 57 l 431 361 l 431 372 l 201 678 l 74 611 l 257 365 l 74 121 l 201 57 "},"¼":{"ha":694,"x_min":0,"x_max":694,"o":"m 0 0 l 694 0 l 694 972 l 0 972 l 0 0 m 113 68 l 347 422 l 583 68 l 113 68 m 68 133 l 68 839 l 306 486 l 68 133 m 625 133 l 388 486 l 625 839 l 625 133 m 347 549 l 113 903 l 583 903 l 347 549 "},"½":{"ha":694,"x_min":0,"x_max":694,"o":"m 0 0 l 694 0 l 694 972 l 0 972 l 0 0 m 113 68 l 347 422 l 583 68 l 113 68 m 68 133 l 68 839 l 306 486 l 68 133 m 625 133 l 388 486 l 625 839 l 625 133 m 347 549 l 113 903 l 583 903 l 347 549 "},"¾":{"ha":694,"x_min":0,"x_max":694,"o":"m 0 0 l 694 0 l 694 972 l 0 972 l 0 0 m 113 68 l 347 422 l 583 68 l 113 68 m 68 133 l 68 839 l 306 486 l 68 133 m 625 133 l 388 486 l 625 839 l 625 133 m 347 549 l 113 903 l 583 903 l 347 549 "},"¿":{"ha":751,"x_min":58,"x_max":718,"o":"m 318 782 l 504 782 l 504 972 l 318 972 l 318 782 m 383 -12 q 718 142 582 -12 l 614 253 q 388 143 511 143 q 271 179 314 143 q 228 275 228 215 q 485 433 228 424 l 492 440 l 464 665 l 351 665 l 338 553 q 135 463 211 531 q 58 272 58 396 q 147 65 58 142 q 383 -12 236 -12 "},"À":{"ha":1097,"x_min":42,"x_max":1056,"o":"m 42 0 l 217 0 l 317 235 l 776 235 l 875 0 l 1056 0 l 628 979 l 469 979 l 42 0 m 379 386 l 546 775 l 714 386 l 379 386 m 488 1053 l 618 1053 l 471 1281 l 318 1213 l 488 1053 "},"Á":{"ha":1097,"x_min":42,"x_max":1056,"o":"m 42 0 l 217 0 l 317 235 l 776 235 l 875 0 l 1056 0 l 628 979 l 469 979 l 42 0 m 379 386 l 546 775 l 714 386 l 379 386 m 479 1053 l 610 1053 l 779 1213 l 626 1281 l 479 1053 "},"Â":{"ha":1097,"x_min":42,"x_max":1056,"o":"m 42 0 l 217 0 l 317 235 l 776 235 l 875 0 l 1056 0 l 628 979 l 469 979 l 42 0 m 379 386 l 546 775 l 714 386 l 379 386 m 310 1051 l 440 1051 l 547 1144 l 654 1051 l 788 1051 l 626 1254 l 471 1254 l 310 1051 "},"Ã":{"ha":1097,"x_min":42,"x_max":1056,"o":"m 42 0 l 217 0 l 317 235 l 776 235 l 875 0 l 1056 0 l 628 979 l 469 979 l 42 0 m 379 386 l 546 775 l 714 386 l 379 386 m 379 1039 q 412 1093 396 1078 q 456 1108 428 1108 q 546 1081 478 1108 q 656 1053 614 1053 q 752 1094 717 1053 q 811 1225 788 1136 l 718 1254 q 685 1200 701 1215 q 642 1185 669 1185 q 551 1213 619 1185 q 442 1240 483 1240 q 345 1198 381 1240 q 286 1067 310 1156 l 379 1039 "},"Ä":{"ha":1097,"x_min":42,"x_max":1056,"o":"m 42 0 l 217 0 l 317 235 l 776 235 l 875 0 l 1056 0 l 628 979 l 469 979 l 42 0 m 379 386 l 546 775 l 714 386 l 379 386 m 601 1053 l 772 1053 l 772 1217 l 601 1217 l 601 1053 m 325 1053 l 496 1053 l 496 1217 l 325 1217 l 325 1053 "},"Å":{"ha":1097,"x_min":42,"x_max":1056,"o":"m 42 0 l 217 0 l 317 235 l 776 235 l 875 0 l 1056 0 l 642 950 q 707 1071 707 999 q 659 1179 707 1133 q 549 1225 611 1225 q 438 1180 486 1225 q 390 1074 390 1135 q 456 950 390 999 l 42 0 m 549 986 q 488 1011 514 986 q 463 1071 463 1036 q 488 1133 463 1107 q 549 1158 513 1158 q 609 1133 583 1158 q 635 1074 635 1108 q 610 1012 635 1038 q 549 986 585 986 m 379 386 l 546 775 l 714 386 l 379 386 "},"Æ":{"ha":1451,"x_min":17,"x_max":1374,"o":"m 17 0 l 193 0 l 322 235 l 676 235 l 676 0 l 1374 0 l 1374 153 l 847 153 l 847 414 l 1304 414 l 1304 567 l 847 567 l 847 819 l 1367 819 l 1367 972 l 560 972 l 17 0 m 404 386 l 649 824 l 676 824 l 676 386 l 404 386 "},"Ç":{"ha":1025,"x_min":82,"x_max":971,"o":"m 515 -229 l 607 -15 q 809 33 724 -10 q 971 156 894 75 l 861 267 q 729 172 793 203 q 582 140 665 140 q 353 241 444 140 q 261 486 261 342 q 352 732 261 632 q 582 832 443 832 q 854 711 724 832 l 964 838 q 798 950 886 911 q 583 989 710 989 q 224 843 365 989 q 82 486 82 697 q 193 163 82 300 q 479 -7 304 25 l 369 -168 l 515 -229 "},"È":{"ha":931,"x_min":125,"x_max":853,"o":"m 125 0 l 853 0 l 853 153 l 296 153 l 296 414 l 783 414 l 783 567 l 296 567 l 296 819 l 846 819 l 846 972 l 125 972 l 125 0 m 454 1053 l 585 1053 l 438 1281 l 285 1213 l 454 1053 "},"É":{"ha":931,"x_min":125,"x_max":853,"o":"m 125 0 l 853 0 l 853 153 l 296 153 l 296 414 l 783 414 l 783 567 l 296 567 l 296 819 l 846 819 l 846 972 l 125 972 l 125 0 m 385 1053 l 515 1053 l 685 1213 l 532 1281 l 385 1053 "},"Ê":{"ha":931,"x_min":125,"x_max":853,"o":"m 125 0 l 853 0 l 853 153 l 296 153 l 296 414 l 783 414 l 783 567 l 296 567 l 296 819 l 846 819 l 846 972 l 125 972 l 125 0 m 243 1053 l 374 1053 l 481 1146 l 588 1053 l 721 1053 l 560 1256 l 404 1256 l 243 1053 "},"Ë":{"ha":931,"x_min":125,"x_max":853,"o":"m 125 0 l 853 0 l 853 153 l 296 153 l 296 414 l 783 414 l 783 567 l 296 567 l 296 819 l 846 819 l 846 972 l 125 972 l 125 0 m 535 1053 l 706 1053 l 706 1217 l 535 1217 l 535 1053 m 258 1053 l 429 1053 l 429 1217 l 258 1217 l 258 1053 "},"Ì":{"ha":440,"x_min":-8,"x_max":306,"o":"m 135 0 l 306 0 l 306 972 l 135 972 l 135 0 m 161 1053 l 292 1053 l 144 1281 l -8 1213 l 161 1053 "},"Í":{"ha":440,"x_min":135,"x_max":450,"o":"m 135 0 l 306 0 l 306 972 l 135 972 l 135 0 m 150 1053 l 281 1053 l 450 1213 l 297 1281 l 150 1053 "},"Î":{"ha":440,"x_min":-18,"x_max":460,"o":"m 135 0 l 306 0 l 306 972 l 135 972 l 135 0 m -18 1053 l 113 1053 l 219 1146 l 326 1053 l 460 1053 l 299 1256 l 143 1256 l -18 1053 "},"Ï":{"ha":440,"x_min":-3,"x_max":444,"o":"m 135 0 l 306 0 l 306 972 l 135 972 l 135 0 m 274 1053 l 444 1053 l 444 1217 l 274 1217 l 274 1053 m -3 1053 l 168 1053 l 168 1217 l -3 1217 l -3 1053 "},"Ð":{"ha":1128,"x_min":63,"x_max":1046,"o":"m 167 0 l 529 0 q 901 139 756 0 q 1046 486 1046 278 q 901 834 1046 696 q 529 972 757 972 l 167 972 l 167 565 l 63 565 l 63 413 l 167 413 l 167 0 m 336 156 l 336 413 l 581 413 l 581 565 l 336 565 l 336 817 l 529 817 q 774 724 681 817 q 867 486 867 631 q 774 248 867 340 q 529 156 681 156 l 336 156 "},"Ñ":{"ha":1097,"x_min":125,"x_max":972,"o":"m 125 0 l 293 0 l 293 692 l 829 0 l 972 0 l 972 972 l 804 972 l 804 300 l 283 972 l 125 972 l 125 0 m 379 1039 q 412 1093 396 1078 q 456 1108 428 1108 q 546 1081 478 1108 q 656 1053 614 1053 q 752 1094 717 1053 q 811 1225 788 1136 l 718 1254 q 685 1200 701 1215 q 642 1185 669 1185 q 551 1213 619 1185 q 442 1240 483 1240 q 345 1198 381 1240 q 286 1067 310 1156 l 379 1039 "},"Ò":{"ha":1181,"x_min":82,"x_max":1099,"o":"m 954 131 q 1099 486 1099 278 q 956 843 1099 697 q 592 989 813 989 q 226 842 371 989 q 82 486 82 694 q 225 129 82 275 q 589 -17 368 -17 q 882 57 810 -17 q 954 131 954 131 m 355 241 q 261 486 261 342 q 353 732 261 632 q 589 832 446 832 q 826 731 732 832 q 919 486 919 631 q 827 240 919 340 q 592 140 735 140 q 402 191 449 140 q 355 241 355 241 m 519 1053 l 650 1053 l 503 1281 l 350 1213 l 519 1053 "},"Ó":{"ha":1181,"x_min":82,"x_max":1099,"o":"m 954 131 q 1099 486 1099 278 q 956 843 1099 697 q 592 989 813 989 q 226 842 371 989 q 82 486 82 694 q 225 129 82 275 q 589 -17 368 -17 q 882 57 810 -17 q 954 131 954 131 m 355 241 q 261 486 261 342 q 353 732 261 632 q 589 832 446 832 q 826 731 732 832 q 919 486 919 631 q 827 240 919 340 q 592 140 735 140 q 402 191 449 140 q 355 241 355 241 m 531 1053 l 661 1053 l 831 1213 l 678 1281 l 531 1053 "},"Ô":{"ha":1181,"x_min":82,"x_max":1099,"o":"m 954 131 q 1099 486 1099 278 q 956 843 1099 697 q 592 989 813 989 q 226 842 371 989 q 82 486 82 694 q 225 129 82 275 q 589 -17 368 -17 q 882 57 810 -17 q 954 131 954 131 m 355 241 q 261 486 261 342 q 353 732 261 632 q 589 832 446 832 q 826 731 732 832 q 919 486 919 631 q 827 240 919 340 q 592 140 735 140 q 402 191 449 140 q 355 241 355 241 m 351 1053 l 482 1053 l 589 1146 l 696 1053 l 829 1053 l 668 1256 l 513 1256 l 351 1053 "},"Õ":{"ha":1181,"x_min":82,"x_max":1099,"o":"m 954 131 q 1099 486 1099 278 q 956 843 1099 697 q 592 989 813 989 q 226 842 371 989 q 82 486 82 694 q 225 129 82 275 q 589 -17 368 -17 q 882 57 810 -17 q 954 131 954 131 m 355 241 q 261 486 261 342 q 353 732 261 632 q 589 832 446 832 q 826 731 732 832 q 919 486 919 631 q 827 240 919 340 q 592 140 735 140 q 402 191 449 140 q 355 241 355 241 m 421 1039 q 453 1093 438 1078 q 497 1108 469 1108 q 588 1081 519 1108 q 697 1053 656 1053 q 794 1094 758 1053 q 853 1225 829 1136 l 760 1254 q 727 1200 743 1215 q 683 1185 711 1185 q 593 1213 661 1185 q 483 1240 525 1240 q 387 1198 422 1240 q 328 1067 351 1156 l 421 1039 "},"Ö":{"ha":1181,"x_min":82,"x_max":1099,"o":"m 954 131 q 1099 486 1099 278 q 956 843 1099 697 q 592 989 813 989 q 226 842 371 989 q 82 486 82 694 q 225 129 82 275 q 589 -17 368 -17 q 882 57 810 -17 q 954 131 954 131 m 355 241 q 261 486 261 342 q 353 732 261 632 q 589 832 446 832 q 826 731 732 832 q 919 486 919 631 q 827 240 919 340 q 592 140 735 140 q 402 191 449 140 q 355 241 355 241 m 643 1053 l 814 1053 l 814 1217 l 643 1217 l 643 1053 m 367 1053 l 538 1053 l 538 1217 l 367 1217 l 367 1053 "},"×":{"ha":889,"x_min":92,"x_max":794,"o":"m 201 126 l 443 368 l 685 126 l 794 235 l 551 478 l 794 719 l 685 829 l 443 586 l 201 829 l 92 719 l 333 478 l 92 235 l 201 126 "},"Ø":{"ha":1181,"x_min":71,"x_max":1110,"o":"m 589 -17 q 954 131 810 -17 q 1099 486 1099 278 q 972 824 1099 686 l 1110 979 l 942 979 l 875 906 q 592 989 750 989 q 226 842 371 989 q 82 486 82 694 q 208 147 82 286 l 71 -7 l 239 -7 l 306 67 q 589 -17 431 -17 m 322 279 q 258 486 258 368 q 352 734 258 633 q 589 835 446 835 q 767 779 689 835 l 322 279 m 592 138 q 414 193 492 138 l 858 693 q 922 486 922 604 q 828 238 922 339 q 592 138 735 138 "},"Ù":{"ha":1051,"x_min":110,"x_max":942,"o":"m 524 -15 q 831 97 719 -15 q 942 421 942 208 l 942 972 l 771 972 l 771 413 q 706 211 771 281 q 526 142 642 142 q 346 214 411 142 q 281 419 281 286 l 281 972 l 110 972 l 110 413 q 220 94 110 204 q 524 -15 331 -15 m 474 1046 l 604 1046 l 457 1274 l 304 1206 l 474 1046 "},"Ú":{"ha":1051,"x_min":110,"x_max":942,"o":"m 524 -15 q 831 97 719 -15 q 942 421 942 208 l 942 972 l 771 972 l 771 413 q 706 211 771 281 q 526 142 642 142 q 346 214 411 142 q 281 419 281 286 l 281 972 l 110 972 l 110 413 q 220 94 110 204 q 524 -15 331 -15 m 447 1046 l 578 1046 l 747 1206 l 594 1274 l 447 1046 "},"Û":{"ha":1051,"x_min":110,"x_max":942,"o":"m 524 -15 q 831 97 719 -15 q 942 421 942 208 l 942 972 l 771 972 l 771 413 q 706 211 771 281 q 526 142 642 142 q 346 214 411 142 q 281 419 281 286 l 281 972 l 110 972 l 110 413 q 220 94 110 204 q 524 -15 331 -15 m 288 1051 l 418 1051 l 525 1144 l 632 1051 l 765 1051 l 604 1254 l 449 1254 l 288 1051 "},"Ü":{"ha":1051,"x_min":110,"x_max":942,"o":"m 524 -15 q 831 97 719 -15 q 942 421 942 208 l 942 972 l 771 972 l 771 413 q 706 211 771 281 q 526 142 642 142 q 346 214 411 142 q 281 419 281 286 l 281 972 l 110 972 l 110 413 q 220 94 110 204 q 524 -15 331 -15 m 579 1051 l 750 1051 l 750 1215 l 579 1215 l 579 1051 m 303 1051 l 474 1051 l 474 1215 l 303 1215 l 303 1051 "},"Ý":{"ha":994,"x_min":25,"x_max":969,"o":"m 411 0 l 583 0 l 583 388 l 969 972 l 774 972 l 499 542 l 226 972 l 25 972 l 411 383 l 411 0 m 432 1046 l 563 1046 l 732 1206 l 579 1274 l 432 1046 "},"Þ":{"ha":935,"x_min":125,"x_max":878,"o":"m 125 0 l 296 0 l 296 161 l 489 161 q 767 248 657 161 q 878 493 878 335 q 778 731 878 642 q 508 819 678 819 l 296 819 l 296 972 l 125 972 l 125 0 m 296 314 l 296 665 l 494 665 q 648 620 592 665 q 704 492 704 575 q 647 363 704 413 q 494 314 590 314 l 296 314 "},"ß":{"ha":861,"x_min":106,"x_max":793,"o":"m 411 -3 l 433 -3 q 697 70 600 -3 q 793 272 793 143 q 582 522 793 451 q 735 760 735 607 q 654 949 735 875 q 436 1024 574 1024 q 194 936 283 1024 q 106 697 106 849 l 106 0 l 272 0 l 272 703 q 315 832 272 783 q 428 881 358 881 q 530 844 492 881 q 568 747 568 807 q 411 551 568 628 l 411 438 q 567 385 510 425 q 625 279 625 344 q 569 168 625 207 q 411 126 514 129 l 411 -3 "},"à":{"ha":815,"x_min":56,"x_max":721,"o":"m 721 0 l 721 435 q 640 664 721 583 q 399 744 558 744 q 119 683 256 744 l 165 549 q 375 594 275 594 q 509 554 463 594 q 556 438 556 514 l 556 424 q 353 454 460 454 q 138 393 219 454 q 56 214 56 332 q 131 45 56 106 q 317 -15 207 -15 q 554 90 465 -15 l 554 0 l 721 0 m 558 265 q 503 154 558 197 q 364 111 449 111 q 263 140 303 111 q 222 219 222 169 q 267 306 222 275 q 390 336 311 336 q 558 307 483 336 l 558 265 m 357 826 l 488 826 l 340 1054 l 188 986 l 357 826 "},"á":{"ha":815,"x_min":56,"x_max":721,"o":"m 721 0 l 721 435 q 640 664 721 583 q 399 744 558 744 q 119 683 256 744 l 165 549 q 375 594 275 594 q 509 554 463 594 q 556 438 556 514 l 556 424 q 353 454 460 454 q 138 393 219 454 q 56 214 56 332 q 131 45 56 106 q 317 -15 207 -15 q 554 90 465 -15 l 554 0 l 721 0 m 558 265 q 503 154 558 197 q 364 111 449 111 q 263 140 303 111 q 222 219 222 169 q 267 306 222 275 q 390 336 311 336 q 558 307 483 336 l 558 265 m 326 826 l 457 826 l 626 986 l 474 1054 l 326 826 "},"â":{"ha":815,"x_min":56,"x_max":721,"o":"m 721 0 l 721 435 q 640 664 721 583 q 399 744 558 744 q 119 683 256 744 l 165 549 q 375 594 275 594 q 509 554 463 594 q 556 438 556 514 l 556 424 q 353 454 460 454 q 138 393 219 454 q 56 214 56 332 q 131 45 56 106 q 317 -15 207 -15 q 554 90 465 -15 l 554 0 l 721 0 m 558 265 q 503 154 558 197 q 364 111 449 111 q 263 140 303 111 q 222 219 222 169 q 267 306 222 275 q 390 336 311 336 q 558 307 483 336 l 558 265 m 168 826 l 299 826 l 406 919 l 513 826 l 646 826 l 485 1029 l 329 1029 l 168 826 "},"ã":{"ha":815,"x_min":56,"x_max":721,"o":"m 721 0 l 721 435 q 640 664 721 583 q 399 744 558 744 q 119 683 256 744 l 165 549 q 375 594 275 594 q 509 554 463 594 q 556 438 556 514 l 556 424 q 353 454 460 454 q 138 393 219 454 q 56 214 56 332 q 131 45 56 106 q 317 -15 207 -15 q 554 90 465 -15 l 554 0 l 721 0 m 558 265 q 503 154 558 197 q 364 111 449 111 q 263 140 303 111 q 222 219 222 169 q 267 306 222 275 q 390 336 311 336 q 558 307 483 336 l 558 265 m 239 813 q 271 867 256 851 q 315 882 286 882 q 406 854 338 882 q 515 826 474 826 q 612 868 576 826 q 671 999 647 910 l 578 1028 q 546 974 561 989 q 501 958 531 958 q 411 986 479 958 q 301 1014 343 1014 q 205 972 240 1014 q 146 840 169 929 l 239 813 "},"ä":{"ha":815,"x_min":56,"x_max":721,"o":"m 721 0 l 721 435 q 640 664 721 583 q 399 744 558 744 q 119 683 256 744 l 165 549 q 375 594 275 594 q 509 554 463 594 q 556 438 556 514 l 556 424 q 353 454 460 454 q 138 393 219 454 q 56 214 56 332 q 131 45 56 106 q 317 -15 207 -15 q 554 90 465 -15 l 554 0 l 721 0 m 558 265 q 503 154 558 197 q 364 111 449 111 q 263 140 303 111 q 222 219 222 169 q 267 306 222 275 q 390 336 311 336 q 558 307 483 336 l 558 265 m 460 826 l 631 826 l 631 990 l 460 990 l 460 826 m 183 826 l 354 826 l 354 990 l 183 990 l 183 826 "},"å":{"ha":815,"x_min":56,"x_max":721,"o":"m 721 0 l 721 435 q 640 664 721 583 q 399 744 558 744 q 119 683 256 744 l 165 549 q 375 594 275 594 q 509 554 463 594 q 556 438 556 514 l 556 424 q 353 454 460 454 q 138 393 219 454 q 56 214 56 332 q 131 45 56 106 q 317 -15 207 -15 q 554 90 465 -15 l 554 0 l 721 0 m 558 265 q 503 154 558 197 q 364 111 449 111 q 263 140 303 111 q 222 219 222 169 q 267 306 222 275 q 390 336 311 336 q 558 307 483 336 l 558 265 m 517 869 q 565 975 565 914 q 517 1083 565 1038 q 407 1129 469 1129 q 297 1084 344 1129 q 249 978 249 1039 q 297 869 249 915 q 407 824 344 824 q 493 846 469 824 q 517 869 517 869 m 407 890 q 347 915 372 890 q 321 975 321 940 q 346 1037 321 1011 q 407 1063 371 1063 q 467 1038 442 1063 q 493 978 493 1013 q 468 916 493 942 q 407 890 443 890 "},"æ":{"ha":1322,"x_min":56,"x_max":1257,"o":"m 333 -15 q 640 108 492 -15 q 924 -17 747 -17 q 1225 121 1108 -17 l 1126 208 q 926 121 1036 121 q 788 170 844 121 q 717 307 731 219 l 1256 307 q 1257 354 1257 324 q 1165 635 1257 522 q 910 749 1074 749 q 653 624 749 749 q 396 744 583 744 q 119 683 256 744 l 165 549 q 372 594 275 594 q 551 438 551 594 l 551 424 q 350 454 456 454 q 137 393 218 454 q 56 214 56 332 q 135 45 56 106 q 333 -15 214 -15 m 714 418 q 777 558 725 504 q 906 611 829 611 q 1035 557 986 611 q 1092 418 1083 503 l 714 418 m 361 111 q 262 140 301 111 q 222 219 222 169 q 266 306 222 275 q 388 336 310 336 q 551 311 481 336 q 578 206 557 258 q 361 111 476 111 "},"ç":{"ha":793,"x_min":65,"x_max":744,"o":"m 383 -229 l 474 -15 q 624 24 561 -11 q 744 121 688 58 l 643 221 q 453 129 554 129 q 295 197 357 129 q 233 365 233 265 q 294 533 233 464 q 444 601 354 601 q 635 510 547 601 l 739 622 q 446 749 624 749 q 174 636 283 749 q 65 365 65 524 q 144 130 65 232 q 347 -4 222 28 l 236 -168 l 383 -229 "},"è":{"ha":839,"x_min":65,"x_max":775,"o":"m 442 -17 q 742 121 628 -17 l 643 208 q 444 121 553 121 q 304 170 361 121 q 233 307 247 219 l 772 307 q 775 354 775 324 q 683 635 775 522 q 424 749 590 749 q 167 638 268 749 q 65 367 65 526 q 173 90 65 197 q 442 -17 281 -17 m 232 418 q 294 558 243 504 q 422 611 346 611 q 551 557 503 611 q 608 418 600 503 l 232 418 m 363 826 l 493 826 l 346 1054 l 193 986 l 363 826 "},"é":{"ha":839,"x_min":65,"x_max":775,"o":"m 442 -17 q 742 121 628 -17 l 643 208 q 444 121 553 121 q 304 170 361 121 q 233 307 247 219 l 772 307 q 775 354 775 324 q 683 635 775 522 q 424 749 590 749 q 167 638 268 749 q 65 367 65 526 q 173 90 65 197 q 442 -17 281 -17 m 232 418 q 294 558 243 504 q 422 611 346 611 q 551 557 503 611 q 608 418 600 503 l 232 418 m 346 826 l 476 826 l 646 986 l 493 1054 l 346 826 "},"ê":{"ha":839,"x_min":65,"x_max":775,"o":"m 442 -17 q 742 121 628 -17 l 643 208 q 444 121 553 121 q 304 170 361 121 q 233 307 247 219 l 772 307 q 775 354 775 324 q 683 635 775 522 q 424 749 590 749 q 167 638 268 749 q 65 367 65 526 q 173 90 65 197 q 442 -17 281 -17 m 232 418 q 294 558 243 504 q 422 611 346 611 q 551 557 503 611 q 608 418 600 503 l 232 418 m 182 826 l 313 826 l 419 919 l 526 826 l 660 826 l 499 1029 l 343 1029 l 182 826 "},"ë":{"ha":839,"x_min":65,"x_max":775,"o":"m 442 -17 q 742 121 628 -17 l 643 208 q 444 121 553 121 q 304 170 361 121 q 233 307 247 219 l 772 307 q 775 354 775 324 q 683 635 775 522 q 424 749 590 749 q 167 638 268 749 q 65 367 65 526 q 173 90 65 197 q 442 -17 281 -17 m 232 418 q 294 558 243 504 q 422 611 346 611 q 551 557 503 611 q 608 418 600 503 l 232 418 m 474 826 l 644 826 l 644 990 l 474 990 l 474 826 m 197 826 l 368 826 l 368 990 l 197 990 l 197 826 "},"ì":{"ha":397,"x_min":-29,"x_max":283,"o":"m 115 0 l 283 0 l 283 733 l 115 733 l 115 0 m 140 826 l 271 826 l 124 1054 l -29 986 l 140 826 "},"í":{"ha":397,"x_min":115,"x_max":426,"o":"m 115 0 l 283 0 l 283 733 l 115 733 l 115 0 m 126 826 l 257 826 l 426 986 l 274 1054 l 126 826 "},"î":{"ha":397,"x_min":-40,"x_max":438,"o":"m 115 0 l 283 0 l 283 733 l 115 733 l 115 0 m -40 826 l 90 826 l 197 919 l 304 826 l 438 826 l 276 1029 l 121 1029 l -40 826 "},"ï":{"ha":397,"x_min":-25,"x_max":422,"o":"m 115 0 l 283 0 l 283 733 l 115 733 l 115 0 m 251 826 l 422 826 l 422 990 l 251 990 l 251 826 m -25 826 l 146 826 l 146 990 l -25 990 l -25 826 "},"ð":{"ha":892,"x_min":65,"x_max":824,"o":"m 439 -17 q 719 92 614 -17 q 824 357 824 201 q 794 527 824 449 q 701 697 765 606 l 578 876 l 719 938 l 654 1025 l 517 965 l 483 1014 l 290 1014 l 371 904 l 203 831 l 269 743 l 435 817 l 581 618 q 388 675 486 675 q 158 583 250 675 q 65 347 65 492 q 172 89 65 194 q 439 -17 279 -17 m 446 126 q 292 189 353 126 q 231 340 231 251 q 288 492 231 432 q 440 551 346 551 q 597 491 536 551 q 658 343 658 431 q 599 189 658 251 q 446 126 540 126 "},"ñ":{"ha":861,"x_min":106,"x_max":764,"o":"m 106 0 l 274 0 l 274 414 q 319 547 274 499 q 439 596 365 596 q 555 549 514 596 q 596 417 596 503 l 596 0 l 764 0 l 764 467 q 694 672 764 596 q 503 749 625 749 q 274 619 361 749 l 274 733 l 106 733 l 106 0 m 267 813 q 299 867 283 851 q 343 882 314 882 q 433 854 365 882 q 543 826 501 826 q 640 868 604 826 q 699 999 675 910 l 606 1028 q 574 974 589 989 q 529 958 558 958 q 439 986 507 958 q 329 1014 371 1014 q 233 972 268 1014 q 174 840 197 929 l 267 813 "},"ò":{"ha":913,"x_min":65,"x_max":847,"o":"m 454 -17 q 735 95 622 -17 q 847 365 847 207 q 735 638 847 526 q 457 749 624 749 q 178 637 290 749 q 65 365 65 525 q 176 94 65 206 q 454 -17 288 -17 m 457 129 q 297 199 361 129 q 233 365 233 268 q 294 533 233 465 q 454 601 356 601 q 615 533 551 601 q 679 365 679 464 q 618 197 679 265 q 457 129 557 129 m 390 826 l 521 826 l 374 1054 l 221 986 l 390 826 "},"ó":{"ha":913,"x_min":65,"x_max":847,"o":"m 454 -17 q 735 95 622 -17 q 847 365 847 207 q 735 638 847 526 q 457 749 624 749 q 178 637 290 749 q 65 365 65 525 q 176 94 65 206 q 454 -17 288 -17 m 457 129 q 297 199 361 129 q 233 365 233 268 q 294 533 233 465 q 454 601 356 601 q 615 533 551 601 q 679 365 679 464 q 618 197 679 265 q 457 129 557 129 m 390 826 l 521 826 l 690 986 l 538 1054 l 390 826 "},"ô":{"ha":913,"x_min":65,"x_max":847,"o":"m 454 -17 q 735 95 622 -17 q 847 365 847 207 q 735 638 847 526 q 457 749 624 749 q 178 637 290 749 q 65 365 65 525 q 176 94 65 206 q 454 -17 288 -17 m 457 129 q 297 199 361 129 q 233 365 233 268 q 294 533 233 465 q 454 601 356 601 q 615 533 551 601 q 679 365 679 464 q 618 197 679 265 q 457 129 557 129 m 217 826 l 347 826 l 454 919 l 561 826 l 694 826 l 533 1029 l 378 1029 l 217 826 "},"õ":{"ha":913,"x_min":65,"x_max":847,"o":"m 454 -17 q 735 95 622 -17 q 847 365 847 207 q 735 638 847 526 q 457 749 624 749 q 178 637 290 749 q 65 365 65 525 q 176 94 65 206 q 454 -17 288 -17 m 457 129 q 297 199 361 129 q 233 365 233 268 q 294 533 233 465 q 454 601 356 601 q 615 533 551 601 q 679 365 679 464 q 618 197 679 265 q 457 129 557 129 m 286 813 q 318 867 303 851 q 363 882 333 882 q 453 854 385 882 q 563 826 521 826 q 659 868 624 826 q 718 999 694 910 l 625 1028 q 593 974 608 989 q 549 958 578 958 q 458 986 526 958 q 349 1014 390 1014 q 252 972 288 1014 q 193 840 217 929 l 286 813 "},"ö":{"ha":913,"x_min":65,"x_max":847,"o":"m 454 -17 q 735 95 622 -17 q 847 365 847 207 q 735 638 847 526 q 457 749 624 749 q 178 637 290 749 q 65 365 65 525 q 176 94 65 206 q 454 -17 288 -17 m 457 129 q 297 199 361 129 q 233 365 233 268 q 294 533 233 465 q 454 601 356 601 q 615 533 551 601 q 679 365 679 464 q 618 197 679 265 q 457 129 557 129 m 508 826 l 679 826 l 679 990 l 508 990 l 508 826 m 232 826 l 403 826 l 403 990 l 232 990 l 232 826 "},"÷":{"ha":889,"x_min":115,"x_max":772,"o":"m 115 415 l 772 415 l 772 569 l 115 569 l 115 415 m 356 690 l 528 690 l 528 872 l 356 872 l 356 690 m 356 111 l 528 111 l 528 293 l 356 293 l 356 111 "},"ø":{"ha":913,"x_min":44,"x_max":868,"o":"m 454 -17 q 735 95 622 -17 q 847 365 847 207 q 756 615 847 513 q 868 742 797 663 l 715 742 l 667 689 q 457 749 574 749 q 178 637 290 749 q 65 365 65 525 q 156 117 65 222 l 44 -7 l 197 -7 l 244 43 q 454 -17 339 -17 m 264 239 q 229 365 229 296 q 291 536 229 467 q 454 606 353 606 q 567 572 515 606 l 264 239 m 457 126 q 344 158 393 126 l 649 493 q 683 365 683 433 q 621 195 683 264 q 457 126 558 126 "},"ù":{"ha":861,"x_min":97,"x_max":756,"o":"m 358 -15 q 588 114 500 -15 l 588 0 l 756 0 l 756 733 l 588 733 l 588 319 q 542 186 588 235 q 422 138 496 138 q 306 184 347 138 q 265 317 265 231 l 265 733 l 97 733 l 97 267 q 167 61 97 138 q 358 -15 236 -15 m 382 825 l 513 825 l 365 1053 l 213 985 l 382 825 "},"ú":{"ha":861,"x_min":97,"x_max":756,"o":"m 358 -15 q 588 114 500 -15 l 588 0 l 756 0 l 756 733 l 588 733 l 588 319 q 542 186 588 235 q 422 138 496 138 q 306 184 347 138 q 265 317 265 231 l 265 733 l 97 733 l 97 267 q 167 61 97 138 q 358 -15 236 -15 m 346 825 l 476 825 l 646 985 l 493 1053 l 346 825 "},"û":{"ha":861,"x_min":97,"x_max":756,"o":"m 358 -15 q 588 114 500 -15 l 588 0 l 756 0 l 756 733 l 588 733 l 588 319 q 542 186 588 235 q 422 138 496 138 q 306 184 347 138 q 265 317 265 231 l 265 733 l 97 733 l 97 267 q 167 61 97 138 q 358 -15 236 -15 m 192 826 l 322 826 l 429 919 l 536 826 l 669 826 l 508 1029 l 353 1029 l 192 826 "},"ü":{"ha":861,"x_min":97,"x_max":756,"o":"m 358 -15 q 588 114 500 -15 l 588 0 l 756 0 l 756 733 l 588 733 l 588 319 q 542 186 588 235 q 422 138 496 138 q 306 184 347 138 q 265 317 265 231 l 265 733 l 97 733 l 97 267 q 167 61 97 138 q 358 -15 236 -15 m 483 826 l 654 826 l 654 990 l 483 990 l 483 826 m 207 826 l 378 826 l 378 990 l 207 990 l 207 826 "},"ý":{"ha":828,"x_min":36,"x_max":789,"o":"m 256 -226 q 399 -180 344 -226 q 497 -21 453 -133 l 789 733 l 614 733 l 424 189 l 215 733 l 36 733 l 342 0 q 297 -66 321 -47 q 238 -85 274 -85 q 139 -57 190 -85 l 82 -182 q 256 -226 164 -226 m 339 825 l 469 825 l 639 985 l 486 1053 l 339 825 "},"þ":{"ha":931,"x_min":106,"x_max":864,"o":"m 106 -222 l 274 -222 l 274 114 q 522 -15 371 -15 q 763 88 661 -15 q 864 365 864 192 q 763 645 864 542 q 522 749 661 749 q 274 611 371 749 l 274 1014 l 106 1014 l 106 -222 m 483 131 q 333 197 396 131 q 269 365 269 263 q 333 536 269 469 q 483 603 396 603 q 632 538 571 603 q 693 368 693 472 q 633 196 693 261 q 483 131 572 131 "},"ÿ":{"ha":828,"x_min":36,"x_max":789,"o":"m 256 -226 q 399 -180 344 -226 q 497 -21 453 -133 l 789 733 l 614 733 l 424 189 l 215 733 l 36 733 l 342 0 q 297 -66 321 -47 q 238 -85 274 -85 q 139 -57 190 -85 l 82 -182 q 256 -226 164 -226 m 467 826 l 638 826 l 638 990 l 467 990 l 467 826 m 190 826 l 361 826 l 361 990 l 190 990 l 190 826 "},"ı":{"ha":397,"x_min":115,"x_max":283,"o":"m 115 0 l 283 0 l 283 733 l 115 733 l 115 0 "},"Ł":{"ha":901,"x_min":63,"x_max":849,"o":"m 167 0 l 849 0 l 849 156 l 336 156 l 336 438 l 617 522 l 617 681 l 336 597 l 336 972 l 167 972 l 167 546 l 63 514 l 63 356 l 167 386 l 167 0 "},"ł":{"ha":481,"x_min":51,"x_max":429,"o":"m 157 0 l 324 0 l 324 461 l 429 493 l 429 653 l 324 621 l 324 1014 l 157 1014 l 157 572 l 51 540 l 51 381 l 157 413 l 157 0 "},"Œ":{"ha":1525,"x_min":82,"x_max":1447,"o":"m 599 0 l 1447 0 l 1447 153 l 921 153 l 921 414 l 1378 414 l 1378 567 l 921 567 l 921 819 l 1440 819 l 1440 972 l 599 972 q 227 833 372 972 q 82 486 82 694 q 226 138 82 276 q 599 0 371 0 m 599 156 q 354 249 447 156 q 261 486 261 342 q 354 724 261 632 q 599 817 447 817 l 750 817 l 750 156 l 599 156 "},"œ":{"ha":1444,"x_min":65,"x_max":1379,"o":"m 446 -17 q 617 25 539 -17 q 744 138 696 67 q 874 24 794 65 q 1047 -17 953 -17 q 1347 121 1231 -17 l 1249 208 q 1049 121 1158 121 q 909 170 967 121 q 838 307 851 219 l 1376 307 q 1379 354 1379 335 q 1288 635 1379 522 q 1029 749 1196 749 q 867 708 940 749 q 746 597 793 668 q 621 708 697 667 q 453 749 544 749 q 178 636 290 749 q 65 365 65 524 q 176 95 65 207 q 446 -17 288 -17 m 836 418 q 899 558 847 504 q 1028 611 951 611 q 1156 558 1108 611 q 1214 418 1204 504 l 836 418 m 453 129 q 296 199 358 129 q 233 365 233 268 q 294 533 233 464 q 450 601 354 601 q 607 533 544 601 q 669 365 669 464 q 610 197 669 265 q 453 129 550 129 "},"Š":{"ha":889,"x_min":60,"x_max":813,"o":"m 465 -14 q 717 64 621 -14 q 813 276 813 142 q 737 460 813 394 q 500 564 661 525 q 316 628 363 597 q 269 717 269 660 q 312 801 269 768 q 428 835 354 835 q 692 735 557 835 l 783 864 q 431 986 631 986 q 192 908 285 986 q 99 704 99 829 q 176 515 99 576 q 422 413 253 453 q 597 349 553 382 q 642 263 642 317 q 595 172 642 206 q 469 138 549 138 q 163 264 308 138 l 60 142 q 465 -14 233 -14 m 367 1053 l 522 1053 l 683 1256 l 553 1256 l 446 1164 l 339 1256 l 206 1256 l 367 1053 "},"š":{"ha":694,"x_min":46,"x_max":629,"o":"m 357 -14 q 553 46 476 -14 q 629 217 629 106 q 610 302 629 265 q 553 364 590 339 q 483 403 517 389 q 401 433 450 418 q 394 435 399 433 q 388 438 390 436 q 309 465 333 456 q 260 493 285 474 q 236 536 236 513 q 263 592 236 571 q 339 613 290 613 q 546 543 432 613 l 613 663 q 343 746 486 746 q 156 685 231 746 q 82 522 82 624 q 96 447 82 481 q 131 392 110 414 q 185 353 151 371 q 245 324 218 335 q 311 303 272 314 l 324 299 q 383 281 365 286 q 428 263 401 275 q 465 235 454 250 q 475 201 475 221 q 445 141 475 163 q 361 119 415 119 q 121 210 240 119 l 46 96 q 357 -14 185 -14 m 275 826 l 431 826 l 592 1029 l 461 1029 l 354 938 l 247 1029 l 114 1029 l 275 826 "},"Ÿ":{"ha":994,"x_min":25,"x_max":969,"o":"m 411 0 l 583 0 l 583 388 l 969 972 l 774 972 l 499 542 l 226 972 l 25 972 l 411 383 l 411 0 m 550 1051 l 721 1051 l 721 1215 l 550 1215 l 550 1051 m 274 1051 l 444 1051 l 444 1215 l 274 1215 l 274 1051 "},"Ž":{"ha":975,"x_min":90,"x_max":886,"o":"m 90 0 l 886 0 l 886 151 l 313 151 l 886 846 l 886 972 l 108 972 l 108 821 l 664 821 l 90 126 l 90 0 m 415 1053 l 571 1053 l 732 1256 l 601 1256 l 494 1164 l 388 1256 l 254 1256 l 415 1053 "},"ž":{"ha":778,"x_min":72,"x_max":710,"o":"m 72 0 l 710 0 l 710 138 l 286 138 l 710 618 l 710 733 l 88 733 l 88 596 l 496 596 l 72 115 l 72 0 m 322 826 l 478 826 l 639 1029 l 508 1029 l 401 938 l 294 1029 l 161 1029 l 322 826 "},"ƒ":{"ha":732,"x_min":57,"x_max":682,"o":"m 135 -7 q 301 42 242 -7 q 379 201 360 92 l 432 494 l 633 494 l 633 635 l 457 635 l 474 729 q 510 812 483 786 q 586 838 538 838 q 682 824 626 838 l 682 963 q 554 979 631 979 q 388 926 444 979 q 311 764 332 872 l 286 635 l 151 635 l 151 494 l 263 494 l 214 226 q 181 154 204 176 q 113 132 157 132 q 57 138 81 132 l 57 0 q 135 -7 85 -7 "},"ˆ":{"ha":694,"x_min":108,"x_max":586,"o":"m 108 826 l 239 826 l 346 919 l 453 826 l 586 826 l 425 1029 l 269 1029 l 108 826 "},"ˇ":{"ha":694,"x_min":108,"x_max":586,"o":"m 269 826 l 425 826 l 586 1029 l 456 1029 l 349 938 l 242 1029 l 108 1029 l 269 826 "},"˘":{"ha":694,"x_min":110,"x_max":585,"o":"m 513 878 q 585 1029 578 932 l 469 1029 q 347 942 442 942 q 225 1029 253 942 l 110 1029 q 181 878 117 932 q 347 824 246 824 q 481 851 449 824 q 513 878 513 878 "},"˙":{"ha":694,"x_min":260,"x_max":435,"o":"m 260 826 l 435 826 l 435 992 l 260 992 l 260 826 "},"˚":{"ha":694,"x_min":189,"x_max":506,"o":"m 458 869 q 506 975 506 914 q 458 1083 506 1038 q 347 1129 410 1129 q 237 1084 285 1129 q 189 978 189 1039 q 237 869 189 915 q 347 824 285 824 q 434 846 410 824 q 458 869 458 869 m 347 890 q 287 915 313 890 q 261 975 261 940 q 286 1037 261 1011 q 347 1063 311 1063 q 408 1038 382 1063 q 433 978 433 1013 q 408 916 433 942 q 347 890 383 890 "},"˛":{"ha":694,"x_min":244,"x_max":508,"o":"m 508 -228 l 508 -150 q 376 -47 376 -142 q 385 14 376 -17 l 265 14 q 244 -78 244 -36 q 313 -196 244 -156 q 508 -228 382 -236 "},"˜":{"ha":694,"x_min":85,"x_max":610,"o":"m 178 813 q 210 867 194 851 q 254 882 225 882 q 344 854 276 882 q 454 826 413 826 q 551 868 515 826 q 610 999 586 910 l 517 1028 q 485 974 500 989 q 440 958 469 958 q 350 986 418 958 q 240 1014 282 1014 q 144 972 179 1014 q 85 840 108 929 l 178 813 "},"˝":{"ha":694,"x_min":78,"x_max":625,"o":"m 331 826 l 456 826 l 625 986 l 478 1054 l 331 826 m 78 826 l 203 826 l 369 986 l 222 1054 l 78 826 "},"Ω":{"ha":1092,"x_min":94,"x_max":994,"o":"m 94 0 l 475 0 l 475 278 q 321 370 375 294 q 267 551 267 446 q 345 757 267 674 q 547 840 424 840 q 747 758 669 840 q 825 554 825 676 q 772 372 825 447 q 615 278 718 297 l 615 0 l 994 0 l 994 139 l 743 139 l 743 206 q 928 338 863 236 q 994 568 994 440 q 865 871 994 756 q 549 986 736 986 q 226 870 357 986 q 94 567 94 754 q 161 338 94 439 q 347 206 228 238 l 347 139 l 94 139 l 94 0 "},"π":{"ha":694,"x_min":0,"x_max":694,"o":"m 0 0 l 694 0 l 694 972 l 0 972 l 0 0 m 113 68 l 347 422 l 583 68 l 113 68 m 68 133 l 68 839 l 306 486 l 68 133 m 625 133 l 388 486 l 625 839 l 625 133 m 347 549 l 113 903 l 583 903 l 347 549 "},"Ё":{"ha":931,"x_min":125,"x_max":853,"o":"m 538 1053 l 708 1053 l 708 1217 l 538 1217 l 538 1053 m 261 1053 l 432 1053 l 432 1217 l 261 1217 l 261 1053 m 125 0 l 853 0 l 853 153 l 296 153 l 296 414 l 783 414 l 783 567 l 296 567 l 296 819 l 846 819 l 846 972 l 125 972 l 125 0 "},"Ђ":{"ha":1214,"x_min":53,"x_max":1113,"o":"m 783 -22 q 1022 65 932 -22 q 1113 314 1113 151 q 1022 553 1113 467 q 783 639 931 639 q 497 546 628 639 l 497 818 l 854 818 l 854 972 l 53 972 l 53 818 l 326 818 l 326 0 l 497 0 l 497 381 q 746 475 603 475 q 885 432 835 475 q 936 310 936 389 q 883 181 936 221 q 749 140 831 140 q 668 153 706 140 l 636 3 q 783 -22 708 -22 "},"Ѓ":{"ha":825,"x_min":125,"x_max":779,"o":"m 324 1053 l 454 1053 l 624 1213 l 471 1281 l 324 1053 m 125 0 l 294 0 l 294 818 l 779 818 l 779 972 l 125 972 l 125 0 "},"Є":{"ha":1022,"x_min":82,"x_max":975,"o":"m 575 -17 q 801 25 707 -17 q 975 150 896 67 l 865 263 q 731 167 796 199 q 581 136 667 136 q 372 215 460 136 q 264 417 283 294 l 701 417 l 701 563 l 265 563 q 374 758 288 682 q 581 835 461 835 q 857 719 728 835 l 954 836 q 790 949 875 910 q 582 989 704 989 q 224 842 365 989 q 82 486 82 696 q 223 128 82 274 q 575 -17 364 -17 "},"Ѕ":{"ha":889,"x_min":60,"x_max":813,"o":"m 465 -14 q 717 64 621 -14 q 813 276 813 142 q 737 460 813 394 q 500 564 661 525 q 316 628 363 597 q 269 717 269 660 q 312 801 269 768 q 428 835 354 835 q 692 735 557 835 l 783 864 q 431 986 631 986 q 192 908 285 986 q 99 704 99 829 q 176 515 99 576 q 422 413 253 453 q 597 349 553 382 q 642 263 642 317 q 595 172 642 206 q 469 138 549 138 q 163 264 308 138 l 60 142 q 465 -14 233 -14 "},"І":{"ha":440,"x_min":135,"x_max":306,"o":"m 135 0 l 306 0 l 306 972 l 135 972 l 135 0 "},"Ї":{"ha":440,"x_min":-3,"x_max":444,"o":"m 274 1053 l 444 1053 l 444 1217 l 274 1217 l 274 1053 m -3 1053 l 168 1053 l 168 1217 l -3 1217 l -3 1053 m 135 0 l 306 0 l 306 972 l 135 972 l 135 0 "},"Ј":{"ha":776,"x_min":29,"x_max":667,"o":"m 340 -14 q 576 72 490 -14 q 667 331 667 163 l 667 972 l 492 972 l 492 335 q 450 192 492 240 q 338 144 408 144 q 142 258 232 144 l 29 143 q 340 -14 144 -14 "},"Љ":{"ha":1572,"x_min":7,"x_max":1518,"o":"m 125 -11 q 254 20 201 -11 q 349 131 307 51 q 410 358 390 210 q 429 731 429 507 l 429 818 l 760 818 l 760 0 l 1153 0 q 1419 85 1321 0 q 1518 318 1518 171 q 1419 542 1518 463 q 1154 622 1321 622 l 931 622 l 931 972 l 269 972 l 269 781 q 258 490 269 611 q 231 302 247 369 q 188 196 215 235 q 137 147 161 157 q 79 136 113 136 q 24 144 49 136 l 7 4 q 125 -11 65 -11 m 931 153 l 931 474 l 1146 474 q 1296 434 1243 474 q 1349 319 1349 394 q 1297 195 1349 238 q 1150 153 1246 153 l 931 153 "},"Њ":{"ha":1571,"x_min":125,"x_max":1517,"o":"m 125 0 l 294 0 l 294 446 l 758 446 l 758 0 l 1164 0 q 1423 80 1329 0 q 1517 301 1517 160 q 1424 515 1517 439 q 1172 592 1331 592 l 929 592 l 929 972 l 758 972 l 758 592 l 294 592 l 294 972 l 125 972 l 125 0 m 929 153 l 929 449 l 1154 449 q 1346 307 1346 449 q 1157 153 1346 153 l 929 153 "},"Ћ":{"ha":1214,"x_min":53,"x_max":1113,"o":"m 328 0 l 497 0 l 497 372 q 753 469 604 469 q 893 417 843 469 q 943 272 943 365 l 943 0 l 1113 0 l 1113 335 q 1022 555 1113 476 q 783 633 931 633 q 497 540 631 633 l 497 818 l 854 818 l 854 972 l 53 972 l 53 818 l 328 818 l 328 0 "},"Ќ":{"ha":1007,"x_min":125,"x_max":986,"o":"m 425 1053 l 556 1053 l 725 1213 l 572 1281 l 425 1053 m 125 0 l 296 0 l 296 282 l 447 438 l 779 0 l 986 0 l 564 554 l 968 972 l 758 972 l 296 483 l 296 972 l 125 972 l 125 0 "},"Ў":{"ha":1017,"x_min":35,"x_max":981,"o":"m 674 1101 q 746 1243 732 1153 l 643 1263 q 528 1168 614 1168 q 413 1263 439 1168 l 308 1243 q 382 1101 324 1153 q 528 1049 440 1049 q 644 1075 615 1049 q 674 1101 674 1101 m 293 -15 q 601 213 489 -15 l 981 972 l 796 972 l 529 407 l 226 972 l 35 972 l 440 236 q 288 131 375 131 q 168 161 222 131 l 103 33 q 293 -15 193 -15 "},"Џ":{"ha":1043,"x_min":124,"x_max":917,"o":"m 439 -208 l 604 -208 l 604 0 l 917 0 l 917 972 l 747 972 l 747 154 l 293 154 l 293 972 l 124 972 l 124 0 l 439 0 l 439 -208 "},"А":{"ha":1097,"x_min":42,"x_max":1056,"o":"m 42 0 l 217 0 l 317 235 l 776 235 l 875 0 l 1056 0 l 628 979 l 469 979 l 42 0 m 379 386 l 546 775 l 714 386 l 379 386 "},"Б":{"ha":986,"x_min":125,"x_max":918,"o":"m 125 0 l 557 0 q 822 78 726 0 q 918 300 918 156 q 823 517 918 439 q 565 594 728 594 l 294 594 l 294 818 l 850 818 l 850 972 l 125 972 l 125 0 m 294 153 l 294 450 l 550 450 q 747 307 747 450 q 692 187 747 221 q 519 153 636 153 l 294 153 "},"В":{"ha":1003,"x_min":125,"x_max":935,"o":"m 125 0 l 575 0 q 838 69 740 0 q 935 267 935 139 q 742 506 935 440 q 881 722 881 578 q 815 886 881 821 q 561 972 729 972 l 125 972 l 125 0 m 293 563 l 293 821 l 539 821 q 665 788 621 821 q 710 697 710 756 q 660 597 710 631 q 526 563 611 563 l 293 563 m 293 151 l 293 418 l 564 418 q 764 288 764 418 q 715 186 764 221 q 576 151 665 151 l 293 151 "},"Г":{"ha":825,"x_min":125,"x_max":779,"o":"m 125 0 l 294 0 l 294 818 l 779 818 l 779 972 l 125 972 l 125 0 "},"Д":{"ha":1058,"x_min":14,"x_max":1031,"o":"m 14 -208 l 164 -208 l 181 0 l 865 0 l 865 -208 l 1007 -208 l 1031 153 l 910 153 l 910 972 l 232 972 l 232 835 q 108 153 232 397 l 14 153 l 14 -208 m 290 153 q 396 707 396 367 l 396 818 l 739 818 l 739 153 l 290 153 "},"Е":{"ha":931,"x_min":125,"x_max":853,"o":"m 125 0 l 853 0 l 853 153 l 296 153 l 296 414 l 783 414 l 783 567 l 296 567 l 296 819 l 846 819 l 846 972 l 125 972 l 125 0 "},"Ж":{"ha":1508,"x_min":21,"x_max":1488,"o":"m 839 0 l 839 258 l 992 432 l 1282 0 l 1488 0 l 1103 558 l 1468 972 l 1264 972 l 839 467 l 839 972 l 669 972 l 669 467 l 244 972 l 40 972 l 404 558 l 21 0 l 226 0 l 517 432 l 669 258 l 669 0 l 839 0 "},"З":{"ha":897,"x_min":44,"x_max":822,"o":"m 456 989 q 81 842 235 989 l 172 731 q 444 839 285 839 q 577 801 526 839 q 628 703 628 764 q 575 598 628 635 q 428 561 522 561 l 319 561 l 319 419 l 429 419 q 590 385 529 419 q 651 278 651 350 q 597 172 651 211 q 461 132 542 132 q 138 261 274 132 l 44 143 q 228 23 129 63 q 465 -17 328 -17 q 724 64 625 -17 q 822 268 822 144 q 771 417 822 358 q 632 501 719 475 q 797 728 797 571 q 701 915 797 842 q 456 989 606 989 "},"И":{"ha":1071,"x_min":125,"x_max":944,"o":"m 125 0 l 286 0 l 776 708 l 776 0 l 944 0 l 944 972 l 785 972 l 293 263 l 293 972 l 125 972 l 125 0 "},"Й":{"ha":1071,"x_min":125,"x_max":944,"o":"m 686 1101 q 758 1243 744 1153 l 656 1263 q 540 1168 626 1168 q 425 1263 451 1168 l 321 1243 q 394 1101 336 1153 q 540 1049 453 1049 q 657 1075 628 1049 q 686 1101 686 1101 m 125 0 l 286 0 l 776 708 l 776 0 l 944 0 l 944 972 l 785 972 l 293 263 l 293 972 l 125 972 l 125 0 "},"К":{"ha":1007,"x_min":125,"x_max":986,"o":"m 125 0 l 296 0 l 296 282 l 447 438 l 779 0 l 986 0 l 564 554 l 968 972 l 758 972 l 296 483 l 296 972 l 125 972 l 125 0 "},"Л":{"ha":1063,"x_min":7,"x_max":936,"o":"m 125 -11 q 255 19 203 -11 q 349 127 307 49 q 410 355 390 206 q 429 731 429 504 l 429 818 l 765 818 l 765 0 l 936 0 l 936 972 l 269 972 l 269 781 q 258 490 269 611 q 231 302 247 369 q 188 196 215 235 q 137 147 161 157 q 79 136 113 136 q 24 144 49 136 l 7 4 q 125 -11 65 -11 "},"М":{"ha":1206,"x_min":125,"x_max":1081,"o":"m 125 0 l 293 0 l 293 694 l 597 239 l 603 239 l 910 697 l 910 0 l 1081 0 l 1081 972 l 899 972 l 603 513 l 307 972 l 125 972 l 125 0 "},"Н":{"ha":1056,"x_min":125,"x_max":931,"o":"m 125 0 l 296 0 l 296 410 l 760 410 l 760 0 l 931 0 l 931 972 l 760 972 l 760 568 l 296 568 l 296 972 l 125 972 l 125 0 "},"О":{"ha":1181,"x_min":82,"x_max":1099,"o":"m 954 131 q 1099 486 1099 278 q 956 843 1099 697 q 592 989 813 989 q 226 842 371 989 q 82 486 82 694 q 225 129 82 275 q 589 -17 368 -17 q 882 57 810 -17 q 954 131 954 131 m 355 241 q 261 486 261 342 q 353 732 261 632 q 589 832 446 832 q 826 731 732 832 q 919 486 919 631 q 827 240 919 340 q 592 140 735 140 q 402 191 449 140 q 355 241 355 241 "},"П":{"ha":1043,"x_min":125,"x_max":918,"o":"m 125 0 l 296 0 l 296 818 l 747 818 l 747 0 l 918 0 l 918 972 l 125 972 l 125 0 "},"Р":{"ha":928,"x_min":125,"x_max":878,"o":"m 125 0 l 296 0 l 296 313 l 489 313 q 767 400 657 313 q 878 644 878 488 q 778 883 878 794 q 508 972 678 972 l 125 972 l 125 0 m 296 467 l 296 817 l 494 817 q 648 772 592 817 q 704 643 704 726 q 647 515 704 564 q 494 467 590 467 l 296 467 "},"С":{"ha":1025,"x_min":82,"x_max":971,"o":"m 576 -17 q 797 26 706 -17 q 971 156 889 69 l 861 267 q 729 172 793 203 q 582 140 665 140 q 353 241 444 140 q 261 486 261 342 q 352 732 261 632 q 582 832 443 832 q 854 711 724 832 l 964 838 q 798 950 886 911 q 583 989 710 989 q 224 843 365 989 q 82 486 82 697 q 224 128 82 274 q 576 -17 365 -17 "},"Т":{"ha":900,"x_min":56,"x_max":844,"o":"m 364 0 l 536 0 l 536 814 l 844 814 l 844 972 l 56 972 l 56 814 l 364 814 l 364 0 "},"У":{"ha":1017,"x_min":35,"x_max":981,"o":"m 293 -15 q 601 213 489 -15 l 981 972 l 796 972 l 529 407 l 226 972 l 35 972 l 440 236 q 288 131 375 131 q 168 161 222 131 l 103 33 q 293 -15 193 -15 "},"Ф":{"ha":1274,"x_min":65,"x_max":1207,"o":"m 551 -37 l 721 -37 l 721 68 q 1077 186 947 68 q 1207 493 1207 304 q 1076 799 1207 682 q 721 915 946 915 l 721 1007 l 551 1007 l 551 915 q 196 799 326 915 q 65 494 65 683 q 196 186 65 304 q 551 68 326 68 l 551 -37 m 551 219 q 324 292 407 219 q 240 492 240 364 q 324 690 240 618 q 551 763 407 763 l 551 219 m 721 219 l 721 763 q 949 690 865 763 q 1032 492 1032 618 q 949 291 1032 363 q 721 219 867 219 "},"Х":{"ha":1013,"x_min":51,"x_max":961,"o":"m 51 0 l 247 0 l 504 368 l 760 0 l 961 0 l 608 497 l 947 972 l 751 972 l 508 624 l 267 972 l 65 972 l 406 494 l 51 0 "},"Ц":{"ha":1069,"x_min":125,"x_max":1042,"o":"m 876 -208 l 1018 -208 l 1042 154 l 921 154 l 921 972 l 751 972 l 751 154 l 296 154 l 296 972 l 125 972 l 125 0 l 876 0 l 876 -208 "},"Ч":{"ha":992,"x_min":99,"x_max":867,"o":"m 696 0 l 867 0 l 867 972 l 696 972 l 696 538 q 450 461 582 461 q 315 512 361 461 q 269 656 269 563 l 269 972 l 99 972 l 99 613 q 185 381 99 460 q 419 303 272 303 q 696 385 539 303 l 696 0 "},"Ш":{"ha":1524,"x_min":125,"x_max":1399,"o":"m 125 0 l 1399 0 l 1399 972 l 1229 972 l 1229 153 l 847 153 l 847 972 l 676 972 l 676 153 l 294 153 l 294 972 l 125 972 l 125 0 "},"Щ":{"ha":1547,"x_min":125,"x_max":1519,"o":"m 1356 -208 l 1496 -208 l 1519 154 l 1400 154 l 1400 972 l 1229 972 l 1229 154 l 847 154 l 847 972 l 678 972 l 678 154 l 296 154 l 296 972 l 125 972 l 125 0 l 1356 0 l 1356 -208 "},"Ъ":{"ha":1104,"x_min":49,"x_max":1050,"o":"m 292 0 l 683 0 q 951 85 853 0 q 1050 318 1050 171 q 951 542 1050 463 q 685 622 851 622 l 461 622 l 461 972 l 49 972 l 49 818 l 292 818 l 292 0 m 461 153 l 461 474 l 676 474 q 828 434 775 474 q 881 319 881 394 q 828 195 881 238 q 681 153 776 153 l 461 153 "},"Ы":{"ha":1293,"x_min":125,"x_max":1168,"o":"m 125 0 l 517 0 q 785 85 686 0 q 883 318 883 171 q 784 542 883 463 q 518 622 685 622 l 294 622 l 294 972 l 125 972 l 125 0 m 294 153 l 294 474 l 511 474 q 661 434 608 474 q 714 319 714 394 q 662 195 714 238 q 514 153 610 153 l 294 153 m 999 0 l 1168 0 l 1168 972 l 999 972 l 999 0 "},"Ь":{"ha":938,"x_min":125,"x_max":883,"o":"m 125 0 l 517 0 q 785 85 686 0 q 883 318 883 171 q 784 542 883 463 q 518 622 685 622 l 294 622 l 294 972 l 125 972 l 125 0 m 294 153 l 294 474 l 511 474 q 661 434 608 474 q 714 319 714 394 q 662 195 714 238 q 514 153 610 153 l 294 153 "},"Э":{"ha":1019,"x_min":44,"x_max":938,"o":"m 444 -17 q 797 128 656 -17 q 938 486 938 274 q 796 842 938 696 q 438 989 654 989 q 230 949 317 989 q 65 836 143 910 l 163 719 q 439 835 292 835 q 645 758 558 835 q 754 563 732 682 l 319 563 l 319 417 l 756 417 q 649 215 736 294 q 439 136 561 136 q 288 167 353 136 q 154 263 224 199 l 44 150 q 218 25 124 67 q 444 -17 313 -17 "},"Ю":{"ha":1469,"x_min":125,"x_max":1388,"o":"m 918 -17 q 1256 128 1124 -17 q 1388 486 1388 274 q 1256 844 1388 700 q 921 989 1125 989 q 609 869 736 989 q 457 565 482 749 l 296 565 l 296 972 l 125 972 l 125 0 l 296 0 l 296 413 l 456 413 q 606 104 479 225 q 918 -17 732 -17 m 710 238 q 628 486 628 339 q 709 735 628 636 q 918 833 790 833 q 1129 733 1046 833 q 1213 486 1213 633 q 1131 237 1213 336 q 921 138 1049 138 q 752 188 793 138 q 710 238 710 238 "},"Я":{"ha":1003,"x_min":50,"x_max":878,"o":"m 50 0 l 251 0 l 493 336 l 708 336 l 708 0 l 878 0 l 878 972 l 446 972 q 181 888 278 972 q 83 663 83 804 q 146 470 83 546 q 315 365 208 394 l 50 0 m 457 485 q 310 530 365 485 q 256 651 256 575 q 310 774 256 731 q 460 818 364 818 l 708 818 l 708 485 l 457 485 "},"а":{"ha":815,"x_min":56,"x_max":721,"o":"m 721 0 l 721 435 q 640 664 721 583 q 399 744 558 744 q 119 683 256 744 l 165 549 q 375 594 275 594 q 509 554 463 594 q 556 438 556 514 l 556 424 q 353 454 460 454 q 138 393 219 454 q 56 214 56 332 q 131 45 56 106 q 317 -15 207 -15 q 554 90 465 -15 l 554 0 l 721 0 m 558 265 q 503 154 558 197 q 364 111 449 111 q 263 140 303 111 q 222 219 222 169 q 267 306 222 275 q 390 336 311 336 q 558 307 483 336 l 558 265 "},"б":{"ha":908,"x_min":83,"x_max":843,"o":"m 464 129 q 313 194 374 129 q 251 354 251 260 q 310 515 251 450 q 461 581 369 581 q 613 515 551 581 q 675 354 675 449 q 616 194 675 258 q 464 129 557 129 m 461 -17 q 734 93 625 -17 q 843 357 843 203 q 740 610 843 507 q 493 714 636 714 q 316 673 388 714 q 211 576 244 632 q 261 710 218 657 q 404 785 304 764 l 804 872 l 776 1007 l 376 924 q 262 883 311 910 q 181 816 213 856 q 130 733 150 776 q 100 633 110 690 q 87 526 90 575 q 83 411 83 476 q 183 96 83 208 q 461 -17 283 -17 "},"в":{"ha":819,"x_min":106,"x_max":757,"o":"m 106 0 l 486 0 q 684 53 611 0 q 757 199 757 106 q 606 382 757 339 q 724 550 724 435 q 658 684 724 635 q 482 733 592 733 l 106 733 l 106 0 m 271 133 l 271 317 l 453 317 q 552 293 518 317 q 586 228 586 269 q 553 159 586 185 q 461 133 521 133 l 271 133 m 271 431 l 271 604 l 446 604 q 526 581 500 604 q 553 521 553 558 q 524 456 553 481 q 443 431 494 431 l 271 431 "},"г":{"ha":653,"x_min":106,"x_max":625,"o":"m 106 0 l 274 0 l 274 589 l 625 589 l 625 733 l 106 733 l 106 0 "},"д":{"ha":889,"x_min":21,"x_max":854,"o":"m 21 -176 l 161 -176 l 178 0 l 692 0 l 692 -176 l 832 -176 l 854 144 l 750 144 l 750 733 l 182 733 l 182 643 q 100 144 182 308 l 21 144 l 21 -176 m 272 144 q 340 492 340 288 l 340 589 l 582 589 l 582 144 l 272 144 "},"е":{"ha":839,"x_min":65,"x_max":775,"o":"m 442 -17 q 742 121 628 -17 l 643 208 q 444 121 553 121 q 304 170 361 121 q 233 307 247 219 l 772 307 q 775 354 775 324 q 683 635 775 522 q 424 749 590 749 q 167 638 268 749 q 65 367 65 526 q 173 90 65 197 q 442 -17 281 -17 m 232 418 q 294 558 243 504 q 422 611 346 611 q 551 557 503 611 q 608 418 600 503 l 232 418 "},"ж":{"ha":1215,"x_min":13,"x_max":1203,"o":"m 13 0 l 201 0 l 411 313 l 524 185 l 524 0 l 692 0 l 692 185 l 804 313 l 1014 0 l 1203 0 l 917 425 l 1193 733 l 997 733 l 692 374 l 692 733 l 524 733 l 524 374 l 219 733 l 24 733 l 300 425 l 13 0 "},"з":{"ha":719,"x_min":35,"x_max":650,"o":"m 356 -17 q 568 48 486 -17 q 650 207 650 113 q 517 385 650 338 q 632 551 632 435 q 556 693 632 638 q 358 749 479 749 q 60 643 181 749 l 135 538 q 343 613 221 613 q 430 590 396 613 q 464 529 464 567 q 428 460 464 488 q 335 433 393 433 l 244 433 l 244 313 l 335 313 q 444 288 406 313 q 483 221 483 263 q 443 148 483 176 q 344 119 403 119 q 114 207 217 119 l 35 96 q 356 -17 167 -17 "},"и":{"ha":881,"x_min":106,"x_max":775,"o":"m 106 0 l 264 0 l 613 489 l 613 0 l 775 0 l 775 733 l 617 733 q 269 242 500 569 l 269 733 l 106 733 l 106 0 "},"й":{"ha":881,"x_min":106,"x_max":775,"o":"m 587 870 q 658 1011 644 922 l 557 1031 q 442 936 528 936 q 326 1031 356 936 l 224 1011 q 296 870 238 922 q 442 818 354 818 q 558 844 529 818 q 587 870 587 870 m 106 0 l 264 0 l 613 489 l 613 0 l 775 0 l 775 733 l 617 733 q 269 242 500 569 l 269 733 l 106 733 l 106 0 "},"к":{"ha":824,"x_min":106,"x_max":813,"o":"m 106 0 l 272 0 l 272 176 l 392 303 l 614 0 l 813 0 l 504 425 l 789 733 l 592 733 l 272 382 l 272 733 l 106 733 l 106 0 "},"л":{"ha":865,"x_min":1,"x_max":760,"o":"m 100 -8 q 190 3 154 -8 q 262 49 226 14 q 317 149 297 85 q 350 322 338 213 q 363 589 363 432 l 592 589 l 592 0 l 760 0 l 760 733 l 206 733 q 199 456 206 569 q 181 281 192 343 q 149 184 169 218 q 110 142 129 150 q 63 133 92 133 q 14 139 36 133 l 1 1 q 100 -8 60 -8 "},"м":{"ha":1004,"x_min":106,"x_max":899,"o":"m 106 0 l 269 0 l 269 486 l 499 160 l 729 489 l 729 0 l 899 0 l 899 733 l 732 733 l 501 393 l 272 733 l 106 733 l 106 0 "},"н":{"ha":871,"x_min":106,"x_max":765,"o":"m 106 0 l 274 0 l 274 296 l 597 296 l 597 0 l 765 0 l 765 733 l 597 733 l 597 436 l 274 436 l 274 733 l 106 733 l 106 0 "},"о":{"ha":913,"x_min":65,"x_max":847,"o":"m 454 -17 q 735 95 622 -17 q 847 365 847 207 q 735 638 847 526 q 457 749 624 749 q 178 637 290 749 q 65 365 65 525 q 176 94 65 206 q 454 -17 288 -17 m 457 129 q 297 199 361 129 q 233 365 233 268 q 294 533 233 465 q 454 601 356 601 q 615 533 551 601 q 679 365 679 464 q 618 197 679 265 q 457 129 557 129 "},"п":{"ha":865,"x_min":106,"x_max":760,"o":"m 106 0 l 274 0 l 274 589 l 592 589 l 592 0 l 760 0 l 760 733 l 106 733 l 106 0 "},"р":{"ha":931,"x_min":106,"x_max":864,"o":"m 106 -222 l 274 -222 l 274 114 q 522 -15 371 -15 q 763 88 661 -15 q 864 365 864 192 q 763 645 864 542 q 522 749 661 749 q 274 611 371 749 l 274 733 l 106 733 l 106 -222 m 483 131 q 333 197 396 131 q 269 365 269 263 q 333 536 269 469 q 483 603 396 603 q 632 538 571 603 q 693 368 693 472 q 633 196 693 261 q 483 131 572 131 "},"с":{"ha":786,"x_min":65,"x_max":744,"o":"m 444 -17 q 615 19 544 -17 q 744 121 685 54 l 643 221 q 453 129 554 129 q 295 197 357 129 q 233 365 233 265 l 233 368 q 294 533 233 465 q 444 601 354 601 q 635 510 547 601 l 739 622 q 446 749 624 749 q 174 636 283 749 q 65 365 65 524 l 65 363 q 174 94 65 204 q 444 -17 282 -17 "},"т":{"ha":696,"x_min":26,"x_max":668,"o":"m 263 0 l 432 0 l 432 589 l 668 589 l 668 733 l 26 733 l 26 589 l 263 589 l 263 0 "},"у":{"ha":828,"x_min":36,"x_max":789,"o":"m 256 -226 q 399 -180 344 -226 q 497 -21 453 -133 l 789 733 l 614 733 l 424 189 l 215 733 l 36 733 l 342 0 q 297 -66 321 -47 q 238 -85 274 -85 q 139 -57 190 -85 l 82 -182 q 256 -226 164 -226 "},"ф":{"ha":1235,"x_min":68,"x_max":1167,"o":"m 533 -222 l 701 -222 l 701 53 q 869 -11 768 -11 q 1085 89 1003 -11 q 1167 365 1167 189 q 1084 642 1167 540 q 868 744 1001 744 q 701 671 772 744 l 701 972 l 533 972 l 533 671 q 367 744 463 744 q 151 643 233 744 q 68 367 68 542 q 150 90 68 190 q 365 -11 232 -11 q 533 53 467 -11 l 533 -222 m 415 129 q 283 191 328 129 q 238 364 238 253 q 283 538 238 474 q 415 601 329 601 q 533 550 478 601 l 533 178 q 415 129 478 129 m 821 129 q 701 178 757 129 l 701 550 q 821 601 763 601 q 952 538 907 601 q 997 365 997 474 q 953 191 997 253 q 821 129 908 129 "},"х":{"ha":806,"x_min":42,"x_max":764,"o":"m 42 0 l 221 0 l 400 257 l 581 0 l 764 0 l 493 376 l 753 733 l 574 733 l 404 492 l 235 733 l 51 733 l 311 372 l 42 0 "},"ц":{"ha":896,"x_min":106,"x_max":861,"o":"m 699 -176 l 839 -176 l 861 144 l 756 144 l 756 733 l 589 733 l 589 144 l 272 144 l 272 733 l 106 733 l 106 0 l 699 0 l 699 -176 "},"ч":{"ha":825,"x_min":83,"x_max":719,"o":"m 551 0 l 719 0 l 719 733 l 551 733 l 551 410 q 372 361 467 361 q 285 399 318 361 q 251 489 251 436 l 251 733 l 83 733 l 83 449 q 152 278 83 339 q 333 218 221 218 q 551 274 443 218 l 551 0 "},"ш":{"ha":1256,"x_min":106,"x_max":1150,"o":"m 106 0 l 1150 0 l 1150 733 l 982 733 l 982 144 l 711 144 l 711 733 l 544 733 l 544 144 l 274 144 l 274 733 l 106 733 l 106 0 "},"щ":{"ha":1289,"x_min":106,"x_max":1254,"o":"m 1093 -176 l 1233 -176 l 1254 144 l 1150 144 l 1150 733 l 982 733 l 982 144 l 711 144 l 711 733 l 544 733 l 544 144 l 274 144 l 274 733 l 106 733 l 106 0 l 1093 0 l 1093 -176 "},"ъ":{"ha":896,"x_min":24,"x_max":854,"o":"m 226 0 l 574 0 q 779 65 704 0 q 854 244 854 131 q 774 418 854 360 q 563 476 693 476 l 393 476 l 393 733 l 24 733 l 24 590 l 226 590 l 226 0 m 393 136 l 393 346 l 550 346 q 650 319 615 346 q 685 244 685 293 q 553 136 685 136 l 393 136 "},"ы":{"ha":1104,"x_min":106,"x_max":999,"o":"m 106 0 l 440 0 q 644 65 569 0 q 719 244 719 131 q 639 418 719 360 q 428 476 558 476 l 274 476 l 274 733 l 106 733 l 106 0 m 274 136 l 274 346 l 415 346 q 516 319 481 346 q 551 244 551 293 q 517 164 551 192 q 418 136 482 136 l 274 136 m 831 0 l 999 0 l 999 733 l 831 733 l 831 0 "},"ь":{"ha":775,"x_min":106,"x_max":733,"o":"m 106 0 l 454 0 q 658 65 583 0 q 733 244 733 131 q 653 418 733 360 q 442 476 572 476 l 274 476 l 274 733 l 106 733 l 106 0 m 274 136 l 274 346 l 429 346 q 530 319 494 346 q 565 244 565 293 q 531 164 565 192 q 432 136 496 136 l 274 136 "},"э":{"ha":786,"x_min":38,"x_max":721,"o":"m 342 -17 q 612 94 503 -17 q 721 364 721 206 q 613 635 721 522 q 342 747 504 747 q 51 624 169 747 l 142 519 q 340 606 228 606 q 476 555 418 606 q 549 428 533 504 l 263 428 l 263 307 l 550 307 q 475 176 535 228 q 333 124 415 124 q 138 218 229 124 l 38 119 q 342 -17 157 -17 "},"ю":{"ha":1190,"x_min":106,"x_max":1125,"o":"m 757 -17 q 1022 94 919 -17 q 1125 365 1125 206 q 1024 638 1125 528 q 760 747 922 747 q 519 659 617 747 q 399 436 421 571 l 272 436 l 272 733 l 106 733 l 106 0 l 272 0 l 272 297 l 399 297 q 516 72 419 160 q 757 -17 613 -17 m 760 129 q 614 197 668 129 q 560 365 560 265 q 611 535 560 468 q 757 601 663 601 q 903 533 849 601 q 958 365 958 465 q 906 197 958 264 q 760 129 854 129 "},"я":{"ha":833,"x_min":39,"x_max":728,"o":"m 39 0 l 236 0 l 410 247 l 560 247 l 560 0 l 728 0 l 728 733 l 360 733 q 147 668 224 733 q 71 494 71 603 q 117 355 71 411 q 242 275 164 299 l 39 0 m 383 374 q 278 403 318 374 q 239 486 239 433 q 277 567 239 538 q 382 597 315 597 l 560 597 l 560 374 l 383 374 "},"ё":{"ha":839,"x_min":65,"x_max":775,"o":"m 471 826 l 642 826 l 642 990 l 471 990 l 471 826 m 194 826 l 365 826 l 365 990 l 194 990 l 194 826 m 442 -17 q 742 121 628 -17 l 643 208 q 444 121 553 121 q 304 170 361 121 q 233 307 247 219 l 772 307 q 775 354 775 324 q 683 635 775 522 q 424 749 590 749 q 167 638 268 749 q 65 367 65 526 q 173 90 65 197 q 442 -17 281 -17 m 232 418 q 294 558 243 504 q 422 611 346 611 q 551 557 503 611 q 608 418 600 503 l 232 418 "},"ђ":{"ha":861,"x_min":4,"x_max":767,"o":"m 496 -12 q 693 63 619 -12 q 767 268 767 139 l 767 428 q 697 633 767 557 q 503 710 626 710 q 272 579 364 710 l 272 776 l 522 776 l 522 899 l 272 899 l 272 1014 l 104 1014 l 104 899 l 4 899 l 4 776 l 104 776 l 104 0 l 272 0 l 272 374 q 319 508 272 458 q 440 557 365 557 q 557 510 515 557 q 599 378 599 463 l 599 315 q 554 183 599 232 q 439 133 510 133 q 379 144 406 133 l 350 13 q 496 -12 425 -12 "},"ѓ":{"ha":653,"x_min":106,"x_max":625,"o":"m 250 826 l 381 826 l 550 986 l 397 1054 l 250 826 m 106 0 l 274 0 l 274 589 l 625 589 l 625 733 l 106 733 l 106 0 "},"є":{"ha":797,"x_min":65,"x_max":749,"o":"m 444 -17 q 749 119 629 -17 l 649 218 q 453 124 557 124 q 311 175 371 124 q 235 307 251 226 l 524 307 l 524 428 l 236 428 q 310 555 251 504 q 446 606 368 606 q 644 519 558 606 l 735 624 q 444 747 617 747 q 174 635 282 747 q 65 364 65 522 q 174 94 65 206 q 444 -17 283 -17 "},"ѕ":{"ha":694,"x_min":46,"x_max":629,"o":"m 357 -14 q 553 46 476 -14 q 629 217 629 106 q 610 302 629 265 q 553 364 590 339 q 483 403 517 389 q 401 433 450 418 q 394 435 399 433 q 388 438 390 436 q 309 465 333 456 q 260 493 285 474 q 236 536 236 513 q 263 592 236 571 q 339 613 290 613 q 546 543 432 613 l 613 663 q 343 746 486 746 q 156 685 231 746 q 82 522 82 624 q 96 447 82 481 q 131 392 110 414 q 185 353 151 371 q 245 324 218 335 q 311 303 272 314 l 324 299 q 383 281 365 286 q 428 263 401 275 q 465 235 454 250 q 475 201 475 221 q 445 141 475 163 q 361 119 415 119 q 121 210 240 119 l 46 96 q 357 -14 185 -14 "},"і":{"ha":397,"x_min":108,"x_max":289,"o":"m 108 846 l 289 846 l 289 1006 l 108 1006 l 108 846 m 115 0 l 283 0 l 283 733 l 115 733 l 115 0 "},"ї":{"ha":397,"x_min":-24,"x_max":424,"o":"m 253 826 l 424 826 l 424 990 l 253 990 l 253 826 m -24 826 l 147 826 l 147 990 l -24 990 l -24 826 m 115 0 l 283 0 l 283 733 l 115 733 l 115 0 "},"ј":{"ha":397,"x_min":-11,"x_max":289,"o":"m 108 846 l 289 846 l 289 1006 l 108 1006 l 108 846 m 69 -226 q 283 -10 283 -226 l 283 733 l 115 733 l 115 0 q 36 -89 115 -89 q -11 -85 14 -89 l -11 -219 q 69 -226 33 -226 "},"љ":{"ha":1261,"x_min":1,"x_max":1219,"o":"m 100 -8 q 190 3 154 -8 q 262 49 226 14 q 317 149 297 85 q 350 322 338 213 q 363 589 363 432 l 592 589 l 592 0 l 940 0 q 1144 65 1069 0 q 1219 244 1219 131 q 1139 418 1219 360 q 928 476 1058 476 l 760 476 l 760 733 l 206 733 q 197 409 206 533 q 166 226 188 285 q 122 151 144 168 q 63 133 100 133 q 14 139 36 133 l 1 1 q 100 -8 53 -8 m 760 136 l 760 346 l 915 346 q 1016 319 981 346 q 1051 244 1051 293 q 1017 164 1051 192 q 918 136 982 136 l 760 136 "},"њ":{"ha":1265,"x_min":104,"x_max":1224,"o":"m 104 0 l 272 0 l 272 336 l 596 336 l 596 0 l 944 0 q 1149 63 1075 0 q 1224 238 1224 125 q 1144 410 1224 353 q 933 468 1064 468 l 764 468 l 764 733 l 596 733 l 596 468 l 272 468 l 272 733 l 104 733 l 104 0 m 764 136 l 764 338 l 921 338 q 1056 239 1056 338 q 924 136 1056 136 l 764 136 "},"ћ":{"ha":861,"x_min":4,"x_max":764,"o":"m 104 0 l 272 0 l 272 375 q 318 508 272 460 q 439 557 364 557 q 555 510 514 557 q 596 378 596 464 l 596 0 l 764 0 l 764 428 q 694 633 764 557 q 501 710 624 710 q 272 581 360 710 l 272 776 l 522 776 l 522 899 l 272 899 l 272 1014 l 104 1014 l 104 899 l 4 899 l 4 776 l 104 776 l 104 0 "},"ќ":{"ha":824,"x_min":106,"x_max":813,"o":"m 335 826 l 465 826 l 635 986 l 482 1054 l 335 826 m 106 0 l 272 0 l 272 176 l 392 303 l 614 0 l 813 0 l 504 425 l 789 733 l 592 733 l 272 382 l 272 733 l 106 733 l 106 0 "},"ў":{"ha":828,"x_min":36,"x_max":789,"o":"m 567 870 q 639 1011 625 922 l 538 1031 q 422 936 508 936 q 307 1031 336 936 l 204 1011 q 276 870 218 922 q 422 818 335 818 q 539 844 510 818 q 567 870 567 870 m 256 -226 q 399 -180 344 -226 q 497 -21 453 -133 l 789 733 l 614 733 l 424 189 l 215 733 l 36 733 l 342 0 q 297 -66 321 -47 q 238 -85 274 -85 q 139 -57 190 -85 l 82 -182 q 256 -226 164 -226 "},"џ":{"ha":865,"x_min":106,"x_max":760,"o":"m 356 -176 l 515 -176 l 515 0 l 760 0 l 760 733 l 593 733 l 593 144 l 272 144 l 272 733 l 106 733 l 106 0 l 356 0 l 356 -176 "},"Ґ":{"ha":825,"x_min":125,"x_max":779,"o":"m 125 0 l 294 0 l 294 818 l 779 818 l 756 1181 l 613 1181 l 613 972 l 125 972 l 125 0 "},"ґ":{"ha":653,"x_min":106,"x_max":625,"o":"m 106 0 l 274 0 l 274 589 l 625 589 l 604 910 l 464 910 l 464 733 l 106 733 l 106 0 "},"–":{"ha":733,"x_min":78,"x_max":656,"o":"m 78 346 l 656 346 l 656 506 l 78 506 l 78 346 "},"—":{"ha":1247,"x_min":78,"x_max":1169,"o":"m 78 346 l 1169 346 l 1169 506 l 78 506 l 78 346 "},"‘":{"ha":374,"x_min":88,"x_max":319,"o":"m 88 586 l 272 586 l 272 778 l 201 778 q 201 785 201 781 q 200 793 200 790 q 319 907 200 886 l 301 979 q 140 916 193 971 q 88 749 88 861 l 88 586 "},"’":{"ha":374,"x_min":54,"x_max":286,"o":"m 72 579 q 233 642 181 588 q 286 810 286 697 l 286 972 l 101 972 l 101 782 l 172 782 q 173 774 172 779 q 174 767 174 769 q 54 651 174 672 l 72 579 "},"‚":{"ha":374,"x_min":47,"x_max":279,"o":"m 65 -201 q 226 -138 174 -193 q 279 29 279 -83 l 279 190 l 94 190 l 94 0 l 165 0 q 47 -131 175 -106 l 65 -201 "},"“":{"ha":696,"x_min":88,"x_max":642,"o":"m 410 586 l 594 586 l 594 778 l 522 778 l 522 790 q 642 907 522 886 l 624 979 q 463 916 515 971 q 410 749 410 861 l 410 586 m 88 586 l 272 586 l 272 778 l 201 778 q 201 785 201 781 q 200 793 200 790 q 319 907 200 886 l 301 979 q 140 916 193 971 q 88 749 88 861 l 88 586 "},"”":{"ha":696,"x_min":54,"x_max":608,"o":"m 394 579 q 556 642 503 588 q 608 810 608 697 l 608 972 l 424 972 l 424 782 l 494 782 q 495 774 494 779 q 496 767 496 769 q 376 651 496 672 l 394 579 m 72 579 q 233 642 181 588 q 286 810 286 697 l 286 972 l 101 972 l 101 782 l 172 782 q 173 774 172 779 q 174 767 174 769 q 54 651 174 672 l 72 579 "},"„":{"ha":696,"x_min":47,"x_max":601,"o":"m 388 -201 q 549 -138 496 -193 q 601 29 601 -83 l 601 190 l 417 190 l 417 0 l 488 0 q 488 -8 488 -3 q 489 -15 489 -12 q 369 -131 489 -107 l 388 -201 m 65 -201 q 226 -138 174 -193 q 279 29 279 -83 l 279 190 l 94 190 l 94 0 l 165 0 q 166 -8 165 -3 q 167 -15 167 -12 q 47 -131 167 -107 l 65 -201 "},"†":{"ha":569,"x_min":78,"x_max":492,"o":"m 235 331 l 335 331 l 322 713 l 492 700 l 492 799 l 324 786 l 340 972 l 229 972 l 246 786 l 78 799 l 78 700 l 247 713 l 235 331 "},"‡":{"ha":597,"x_min":92,"x_max":506,"o":"m 243 0 l 354 0 l 338 186 l 506 174 l 506 272 l 338 260 l 349 486 l 338 713 l 506 700 l 506 799 l 338 786 l 354 972 l 243 972 l 260 786 l 92 799 l 92 700 l 260 713 l 249 486 l 260 260 l 92 272 l 92 174 l 260 186 l 243 0 "},"•":{"ha":682,"x_min":144,"x_max":538,"o":"m 340 293 q 480 350 422 293 q 538 488 538 407 q 479 627 538 569 q 340 685 421 685 q 203 628 261 685 q 144 490 144 571 q 202 350 144 407 q 340 293 260 293 "},"…":{"ha":1100,"x_min":94,"x_max":1006,"o":"m 825 0 l 1006 0 l 1006 186 l 825 186 l 825 0 m 460 0 l 640 0 l 640 186 l 460 186 l 460 0 m 94 0 l 275 0 l 275 186 l 94 186 l 94 0 "},"‰":{"ha":1706,"x_min":67,"x_max":1639,"o":"m 294 486 q 460 559 396 486 q 525 735 525 632 q 461 911 525 839 q 297 983 397 983 q 131 910 196 983 q 67 735 67 838 q 131 558 67 631 q 294 486 194 486 m 165 0 l 303 0 l 1014 972 l 876 972 l 165 0 m 1574 62 q 1639 238 1639 135 q 1575 414 1639 342 q 1411 486 1511 486 q 1245 414 1310 486 q 1181 238 1181 342 q 1244 61 1181 133 q 1408 -11 1307 -11 q 1542 25 1510 -11 q 1574 62 1574 62 m 882 -11 q 1048 62 983 -11 q 1113 238 1113 135 q 1049 414 1113 342 q 885 486 985 486 q 719 413 783 486 q 654 238 654 340 q 718 61 654 133 q 882 -11 782 -11 m 297 593 q 221 634 251 593 q 190 735 190 675 q 219 835 190 794 q 294 876 247 876 q 371 835 340 876 q 401 735 401 794 q 373 634 401 675 q 297 593 344 593 m 1411 96 q 1335 137 1365 96 q 1304 238 1304 178 q 1333 338 1304 297 q 1408 379 1361 379 q 1485 338 1454 379 q 1515 238 1515 297 q 1487 137 1515 178 q 1411 96 1458 96 m 885 96 q 808 137 839 96 q 778 238 778 178 q 806 338 778 297 q 882 379 835 379 q 958 338 928 379 q 989 238 989 297 q 960 137 989 178 q 885 96 932 96 "},"‹":{"ha":492,"x_min":61,"x_max":419,"o":"m 292 57 l 419 122 l 236 368 l 419 613 l 292 678 l 61 372 l 61 361 l 292 57 "},"›":{"ha":492,"x_min":74,"x_max":431,"o":"m 201 57 l 431 361 l 431 372 l 201 678 l 74 611 l 257 365 l 74 121 l 201 57 "},"⁄":{"ha":638,"x_min":-97,"x_max":704,"o":"m -97 -136 l 56 -136 l 704 1053 l 551 1053 l -97 -136 "},"€":{"ha":1000,"x_min":72,"x_max":939,"o":"m 603 -17 q 794 34 714 -17 q 939 179 874 85 l 817 268 q 717 168 764 200 q 604 136 669 136 q 465 183 524 136 q 378 313 407 231 l 678 313 l 678 431 l 353 431 q 350 486 350 467 q 353 549 350 513 l 678 549 l 678 667 l 379 667 q 465 791 408 746 q 593 836 521 836 q 711 806 663 836 q 807 710 760 775 l 936 806 q 795 941 875 893 q 597 989 715 989 q 350 900 454 989 q 203 667 246 811 l 72 667 l 72 549 l 181 549 q 178 486 178 529 q 179 431 178 449 l 72 431 l 72 313 l 199 313 q 345 73 239 163 q 603 -17 451 -17 "},"№":{"ha":1460,"x_min":108,"x_max":1383,"o":"m 108 0 l 282 0 l 282 683 l 732 0 l 881 0 l 881 972 l 707 972 l 707 306 l 271 972 l 108 972 l 108 0 m 997 194 l 1360 194 l 1360 300 l 997 300 l 997 194 m 1325 442 q 1383 588 1383 501 q 1326 733 1383 674 q 1181 792 1268 792 q 1035 732 1093 792 q 976 586 976 672 q 1034 441 976 500 q 1179 382 1092 382 q 1296 412 1267 382 q 1325 442 1325 442 m 1110 508 q 1082 586 1082 540 q 1108 665 1082 633 q 1179 697 1135 697 q 1249 665 1221 697 q 1276 586 1276 633 q 1250 507 1276 539 q 1181 475 1224 475 q 1124 491 1138 475 q 1110 508 1110 508 "},"℗":{"ha":1153,"x_min":74,"x_max":1079,"o":"m 932 131 q 1079 486 1079 279 q 933 842 1079 694 q 578 989 788 989 q 221 841 368 989 q 74 486 74 693 q 219 131 74 278 q 575 -17 365 -17 q 858 57 785 -17 q 932 131 932 131 m 575 33 q 256 165 385 33 q 126 483 126 296 q 256 806 126 674 q 578 939 386 939 q 897 808 768 939 q 1026 489 1026 676 q 897 166 1026 299 q 575 33 767 33 m 397 232 l 500 232 l 500 399 l 599 399 q 752 446 690 399 q 814 579 814 493 q 759 711 814 663 q 610 760 704 760 l 397 760 l 397 232 m 500 489 l 500 668 l 601 668 q 681 645 653 668 q 710 581 710 622 q 681 514 710 539 q 601 489 651 489 l 500 489 "},"™":{"ha":958,"x_min":36,"x_max":904,"o":"m 474 544 l 553 544 l 553 849 l 685 643 l 693 643 l 825 849 l 825 544 l 904 544 l 904 972 l 819 972 l 690 769 l 561 972 l 474 972 l 474 544 m 168 544 l 250 544 l 250 897 l 382 897 l 382 972 l 36 972 l 36 897 l 168 897 l 168 544 "},"∂":{"ha":694,"x_min":0,"x_max":694,"o":"m 0 0 l 694 0 l 694 972 l 0 972 l 0 0 m 113 68 l 347 422 l 583 68 l 113 68 m 68 133 l 68 839 l 306 486 l 68 133 m 625 133 l 388 486 l 625 839 l 625 133 m 347 549 l 113 903 l 583 903 l 347 549 "},"∆":{"ha":917,"x_min":39,"x_max":1028,"o":"m 39 0 l 1028 0 l 613 974 l 453 974 l 39 0 m 286 151 l 535 757 l 782 151 l 286 151 "},"∏":{"ha":694,"x_min":0,"x_max":694,"o":"m 0 0 l 694 0 l 694 972 l 0 972 l 0 0 m 113 68 l 347 422 l 583 68 l 113 68 m 68 133 l 68 839 l 306 486 l 68 133 m 625 133 l 388 486 l 625 839 l 625 133 m 347 549 l 113 903 l 583 903 l 347 549 "},"∑":{"ha":694,"x_min":0,"x_max":694,"o":"m 0 0 l 694 0 l 694 972 l 0 972 l 0 0 m 113 68 l 347 422 l 583 68 l 113 68 m 68 133 l 68 839 l 306 486 l 68 133 m 625 133 l 388 486 l 625 839 l 625 133 m 347 549 l 113 903 l 583 903 l 347 549 "},"−":{"ha":889,"x_min":118,"x_max":769,"o":"m 118 411 l 769 411 l 769 567 l 118 567 l 118 411 "},"√":{"ha":782,"x_min":-24,"x_max":835,"o":"m 351 -217 l 385 -217 l 835 1101 l 706 1101 l 351 36 l 172 394 l -24 374 l -14 263 l 104 272 l 351 -217 "},"∞":{"ha":1136,"x_min":60,"x_max":1076,"o":"m 303 235 q 410 260 358 235 q 491 313 461 285 q 568 392 521 340 q 836 235 706 235 q 1012 308 947 235 q 1076 492 1076 381 q 1011 674 1076 603 q 836 746 946 746 q 726 719 778 746 q 646 665 674 692 q 568 581 618 638 q 440 703 500 661 q 299 746 381 746 q 125 674 190 746 q 60 492 60 601 q 126 308 60 381 q 303 235 193 235 m 303 374 q 222 406 251 374 q 193 490 193 439 q 222 574 193 539 q 300 608 251 608 q 485 489 375 608 q 303 374 386 374 m 838 374 q 651 489 754 374 q 833 608 751 608 q 915 575 885 608 q 944 490 944 542 q 916 407 944 440 q 838 374 888 374 "},"∫":{"ha":694,"x_min":0,"x_max":694,"o":"m 0 0 l 694 0 l 694 972 l 0 972 l 0 0 m 113 68 l 347 422 l 583 68 l 113 68 m 68 133 l 68 839 l 306 486 l 68 133 m 625 133 l 388 486 l 625 839 l 625 133 m 347 549 l 113 903 l 583 903 l 347 549 "},"≈":{"ha":889,"x_min":92,"x_max":800,"o":"m 182 522 q 222 583 193 560 q 288 606 250 606 q 438 569 318 606 q 608 532 558 532 q 800 739 760 532 l 708 758 q 601 676 683 676 q 451 713 569 676 q 282 750 332 750 q 92 542 132 750 l 182 522 m 182 214 q 222 274 193 251 q 288 296 250 296 q 438 260 318 296 q 608 224 558 224 q 800 429 760 224 l 708 450 q 601 368 683 368 q 451 404 569 368 q 282 440 332 440 q 92 233 132 440 l 182 214 "},"≠":{"ha":889,"x_min":115,"x_max":771,"o":"m 256 82 l 350 240 l 771 240 l 771 393 l 443 393 l 557 583 l 771 583 l 771 736 l 651 736 l 736 876 l 624 894 l 529 736 l 115 736 l 115 583 l 436 583 l 322 393 l 115 393 l 115 240 l 228 240 l 143 100 l 256 82 "},"≤":{"ha":889,"x_min":106,"x_max":785,"o":"m 106 13 l 785 13 l 785 158 l 106 158 l 106 13 m 785 210 l 785 374 l 272 533 l 785 693 l 785 857 l 106 613 l 106 454 l 785 210 "},"≥":{"ha":889,"x_min":106,"x_max":785,"o":"m 106 13 l 785 13 l 785 158 l 106 158 l 106 13 m 107 210 l 785 454 l 785 613 l 107 857 l 107 693 l 618 533 l 107 374 l 107 210 "},"◊":{"ha":889,"x_min":118,"x_max":769,"o":"m 371 -49 l 514 -49 l 769 494 l 514 1038 l 371 1038 l 118 494 l 371 -49 m 444 108 l 278 494 l 444 878 q 610 494 499 750 l 444 108 "},"":{"ha":694,"x_min":126,"x_max":564,"o":"m 492 874 q 564 1017 550 926 l 461 1036 q 346 942 432 942 q 231 1036 257 942 l 126 1017 q 200 874 142 926 q 346 822 258 822 q 463 848 433 822 q 492 874 492 874 "},"":{"ha":694,"x_min":128,"x_max":563,"o":"m 491 870 q 563 1011 549 922 l 461 1031 q 346 936 432 936 q 231 1031 260 936 l 128 1011 q 200 870 142 922 q 346 818 258 818 q 462 844 433 818 q 491 870 491 870 "},"":{"ha":694,"x_min":0,"x_max":694,"o":"m 0 0 l 694 0 l 694 972 l 0 972 l 0 0 m 113 68 l 347 422 l 583 68 l 113 68 m 68 133 l 68 839 l 306 486 l 68 133 m 625 133 l 388 486 l 625 839 l 625 133 m 347 549 l 113 903 l 583 903 l 347 549 "},"ﬀ":{"ha":1044,"x_min":50,"x_max":1026,"o":"m 665 0 l 833 0 l 833 589 l 1025 589 l 1025 728 l 831 728 l 831 768 q 928 879 831 879 q 1026 861 972 879 l 1026 1003 q 889 1022 961 1022 q 725 964 783 1022 q 665 782 665 904 l 665 729 l 572 729 l 572 589 l 665 589 l 665 0 m 143 0 l 311 0 l 311 589 l 503 589 l 503 728 l 308 728 l 308 768 q 406 879 308 879 q 504 861 450 879 l 504 1003 q 368 1022 439 1022 q 203 964 261 1022 q 143 782 143 904 l 143 729 l 50 729 l 50 589 l 143 589 l 143 0 "},"ﬁ":{"ha":919,"x_min":50,"x_max":811,"o":"m 631 846 l 811 846 l 811 1006 l 631 1006 l 631 846 m 143 0 l 311 0 l 311 589 l 503 589 l 503 728 l 308 728 l 308 768 q 406 879 308 879 q 504 861 450 879 l 504 1003 q 368 1022 439 1022 q 203 964 261 1022 q 143 782 143 904 l 143 729 l 50 729 l 50 589 l 143 589 l 143 0 m 638 0 l 806 0 l 806 733 l 638 733 l 638 0 "},"ﬂ":{"ha":919,"x_min":50,"x_max":806,"o":"m 143 0 l 311 0 l 311 589 l 503 589 l 503 728 l 308 728 l 308 768 q 406 879 308 879 q 504 861 450 879 l 504 1003 q 368 1022 439 1022 q 203 964 261 1022 q 143 782 143 904 l 143 729 l 50 729 l 50 589 l 143 589 l 143 0 m 638 0 l 806 0 l 806 1014 l 638 1014 l 638 0 "},"ﬃ":{"ha":1442,"x_min":50,"x_max":1333,"o":"m 1153 846 l 1333 846 l 1333 1006 l 1153 1006 l 1153 846 m 665 0 l 833 0 l 833 589 l 1025 589 l 1025 728 l 831 728 l 831 768 q 928 879 831 879 q 1026 861 972 879 l 1026 1003 q 889 1022 961 1022 q 725 964 783 1022 q 665 782 665 904 l 665 729 l 572 729 l 572 589 l 665 589 l 665 0 m 143 0 l 311 0 l 311 589 l 503 589 l 503 728 l 308 728 l 308 768 q 406 879 308 879 q 504 861 450 879 l 504 1003 q 368 1022 439 1022 q 203 964 261 1022 q 143 782 143 904 l 143 729 l 50 729 l 50 589 l 143 589 l 143 0 m 1158 0 l 1328 0 l 1328 733 l 1158 733 l 1158 0 "},"ﬄ":{"ha":1442,"x_min":50,"x_max":1328,"o":"m 665 0 l 833 0 l 833 589 l 1025 589 l 1025 728 l 831 728 l 831 768 q 928 879 831 879 q 1026 861 972 879 l 1026 1003 q 889 1022 961 1022 q 725 964 783 1022 q 665 782 665 904 l 665 729 l 572 729 l 572 589 l 665 589 l 665 0 m 143 0 l 311 0 l 311 589 l 503 589 l 503 728 l 308 728 l 308 768 q 406 879 308 879 q 504 861 450 879 l 504 1003 q 368 1022 439 1022 q 203 964 261 1022 q 143 782 143 904 l 143 729 l 50 729 l 50 589 l 143 589 l 143 0 m 1158 0 l 1328 0 l 1328 1014 l 1158 1014 l 1158 0 "}}}
